<?xml version="1.0" encoding="UTF-8"?>
<svg xmlns="http://www.w3.org/2000/svg" xmlns:xlink="http://www.w3.org/1999/xlink" width="800" height="600" viewBox="0 0 800 600">
<defs>
<g>
<g id="glyph-0-0">
<path d="M 2.203125 0 L 0.328125 0 L 4.4375 -5.882812 L 0.585938 -11.476562 L 2.53125 -11.476562 L 5.460938 -7.085938 L 8.367188 -11.476562 L 10.21875 -11.476562 L 6.367188 -5.882812 L 10.40625 0 L 8.476562 0 L 5.382812 -4.71875 Z M 2.203125 0 "/>
</g>
<g id="glyph-0-1">
<rect x="0" y="0" width="0" height="0" mask="url(#mask-0)"/>
</g>
<g id="glyph-0-2">
<path d="M 1 -11.554688 L 4 -11.554688 L 4 -10.40625 L 2.328125 -10.40625 L 2.328125 2 L 4 2 L 4 3.148438 L 1 3.148438 Z M 1 -11.554688 "/>
</g>
<g id="glyph-0-3">
<path d="M 2.109375 -2.226562 C 2.109375 -1.820312 2.257812 -1.5 2.554688 -1.265625 C 2.851562 -1.03125 3.203125 -0.914062 3.609375 -0.914062 C 4.105469 -0.914062 4.582031 -1.027344 5.046875 -1.257812 C 5.828125 -1.636719 6.21875 -2.261719 6.21875 -3.125 L 6.21875 -4.257812 C 6.046875 -4.148438 5.824219 -4.058594 5.554688 -3.984375 C 5.285156 -3.910156 5.019531 -3.859375 4.757812 -3.828125 L 3.90625 -3.71875 C 3.394531 -3.652344 3.011719 -3.542969 2.757812 -3.398438 C 2.324219 -3.152344 2.109375 -2.761719 2.109375 -2.226562 Z M 5.515625 -5.070312 C 5.839844 -5.113281 6.054688 -5.246094 6.164062 -5.476562 C 6.226562 -5.601562 6.257812 -5.78125 6.257812 -6.015625 C 6.257812 -6.496094 6.085938 -6.84375 5.746094 -7.058594 C 5.40625 -7.273438 4.917969 -7.382812 4.28125 -7.382812 C 3.546875 -7.382812 3.027344 -7.183594 2.71875 -6.789062 C 2.546875 -6.570312 2.433594 -6.246094 2.382812 -5.8125 L 1.070312 -5.8125 C 1.097656 -6.84375 1.429688 -7.5625 2.074219 -7.964844 C 2.71875 -8.367188 3.464844 -8.570312 4.3125 -8.570312 C 5.296875 -8.570312 6.097656 -8.382812 6.710938 -8.007812 C 7.320312 -7.632812 7.625 -7.050781 7.625 -6.257812 L 7.625 -1.4375 C 7.625 -1.292969 7.65625 -1.175781 7.714844 -1.085938 C 7.773438 -0.996094 7.902344 -0.953125 8.09375 -0.953125 C 8.15625 -0.953125 8.226562 -0.957031 8.304688 -0.964844 C 8.382812 -0.972656 8.464844 -0.984375 8.554688 -1 L 8.554688 0.0390625 C 8.335938 0.101562 8.167969 0.140625 8.054688 0.15625 C 7.941406 0.171875 7.785156 0.179688 7.585938 0.179688 C 7.101562 0.179688 6.75 0.0078125 6.53125 -0.335938 C 6.417969 -0.519531 6.335938 -0.777344 6.289062 -1.109375 C 6.003906 -0.734375 5.589844 -0.410156 5.054688 -0.132812 C 4.519531 0.144531 3.925781 0.28125 3.28125 0.28125 C 2.503906 0.28125 1.871094 0.046875 1.378906 -0.425781 C 0.886719 -0.898438 0.640625 -1.488281 0.640625 -2.195312 C 0.640625 -2.972656 0.882812 -3.574219 1.367188 -4 C 1.851562 -4.425781 2.488281 -4.691406 3.273438 -4.789062 Z M 5.515625 -5.070312 "/>
</g>
<g id="glyph-0-4">
<path d="M 1.070312 -8.367188 L 2.40625 -8.367188 L 2.40625 -6.921875 C 2.515625 -7.203125 2.785156 -7.546875 3.210938 -7.949219 C 3.636719 -8.351562 4.128906 -8.554688 4.6875 -8.554688 C 4.714844 -8.554688 4.757812 -8.550781 4.820312 -8.546875 C 4.882812 -8.542969 4.988281 -8.53125 5.140625 -8.515625 L 5.140625 -7.03125 C 5.058594 -7.046875 4.980469 -7.058594 4.910156 -7.0625 C 4.839844 -7.066406 4.761719 -7.070312 4.679688 -7.070312 C 3.972656 -7.070312 3.425781 -6.84375 3.046875 -6.386719 C 2.667969 -5.929688 2.476562 -5.40625 2.476562 -4.8125 L 2.476562 0 L 1.070312 0 Z M 1.070312 -8.367188 "/>
</g>
<g id="glyph-0-5">
<path d="M 0.921875 -11.515625 L 2.289062 -11.515625 L 2.289062 -7.351562 C 2.597656 -7.753906 2.964844 -8.058594 3.390625 -8.269531 C 3.816406 -8.480469 4.28125 -8.585938 4.78125 -8.585938 C 5.824219 -8.585938 6.667969 -8.226562 7.316406 -7.511719 C 7.964844 -6.796875 8.289062 -5.738281 8.289062 -4.34375 C 8.289062 -3.019531 7.96875 -1.921875 7.328125 -1.046875 C 6.6875 -0.171875 5.800781 0.265625 4.664062 0.265625 C 4.027344 0.265625 3.492188 0.113281 3.054688 -0.195312 C 2.792969 -0.378906 2.515625 -0.667969 2.21875 -1.070312 L 2.21875 0 L 0.921875 0 Z M 4.578125 -0.976562 C 5.339844 -0.976562 5.90625 -1.277344 6.285156 -1.882812 C 6.664062 -2.488281 6.851562 -3.285156 6.851562 -4.273438 C 6.851562 -5.152344 6.664062 -5.882812 6.285156 -6.460938 C 5.90625 -7.039062 5.351562 -7.328125 4.617188 -7.328125 C 3.976562 -7.328125 3.414062 -7.089844 2.933594 -6.617188 C 2.453125 -6.144531 2.210938 -5.363281 2.210938 -4.273438 C 2.210938 -3.488281 2.308594 -2.847656 2.507812 -2.359375 C 2.878906 -1.4375 3.566406 -0.976562 4.578125 -0.976562 Z M 4.578125 -0.976562 "/>
</g>
<g id="glyph-0-6">
<path d="M 1.03125 -8.328125 L 2.460938 -8.328125 L 2.460938 0 L 1.03125 0 Z M 1.03125 -11.476562 L 2.460938 -11.476562 L 2.460938 -9.882812 L 1.03125 -9.882812 Z M 1.03125 -11.476562 "/>
</g>
<g id="glyph-0-7">
<path d="M 1.3125 -10.703125 L 2.734375 -10.703125 L 2.734375 -8.367188 L 4.070312 -8.367188 L 4.070312 -7.21875 L 2.734375 -7.21875 L 2.734375 -1.757812 C 2.734375 -1.464844 2.832031 -1.269531 3.03125 -1.171875 C 3.140625 -1.113281 3.324219 -1.085938 3.578125 -1.085938 C 3.644531 -1.085938 3.71875 -1.085938 3.796875 -1.089844 C 3.875 -1.09375 3.964844 -1.097656 4.070312 -1.109375 L 4.070312 0 C 3.910156 0.046875 3.742188 0.0820312 3.566406 0.101562 C 3.390625 0.121094 3.203125 0.132812 3 0.132812 C 2.34375 0.132812 1.898438 -0.0351562 1.664062 -0.371094 C 1.429688 -0.707031 1.3125 -1.144531 1.3125 -1.679688 L 1.3125 -7.21875 L 0.179688 -7.21875 L 0.179688 -8.367188 L 1.3125 -8.367188 Z M 1.3125 -10.703125 "/>
</g>
<g id="glyph-0-8">
<path d="M 6.257812 -8.367188 L 7.8125 -8.367188 C 7.613281 -7.832031 7.175781 -6.605469 6.492188 -4.695312 C 5.980469 -3.257812 5.554688 -2.085938 5.210938 -1.179688 C 4.398438 0.957031 3.824219 2.257812 3.492188 2.726562 C 3.160156 3.195312 2.585938 3.429688 1.773438 3.429688 C 1.574219 3.429688 1.421875 3.421875 1.316406 3.40625 C 1.210938 3.390625 1.078125 3.363281 0.921875 3.320312 L 0.921875 2.039062 C 1.167969 2.105469 1.34375 2.148438 1.453125 2.164062 C 1.5625 2.179688 1.660156 2.1875 1.742188 2.1875 C 2.003906 2.1875 2.195312 2.144531 2.316406 2.058594 C 2.4375 1.972656 2.542969 1.867188 2.625 1.742188 C 2.652344 1.699219 2.746094 1.488281 2.90625 1.101562 C 3.066406 0.714844 3.183594 0.429688 3.257812 0.242188 L 0.164062 -8.367188 L 1.757812 -8.367188 L 4 -1.554688 Z M 6.257812 -8.367188 "/>
</g>
<g id="glyph-0-9">
<path d="M 2.4375 -8.367188 L 2.4375 -2.8125 C 2.4375 -2.386719 2.503906 -2.035156 2.640625 -1.765625 C 2.890625 -1.265625 3.355469 -1.015625 4.039062 -1.015625 C 5.019531 -1.015625 5.683594 -1.453125 6.039062 -2.328125 C 6.230469 -2.796875 6.328125 -3.441406 6.328125 -4.257812 L 6.328125 -8.367188 L 7.734375 -8.367188 L 7.734375 0 L 6.40625 0 L 6.421875 -1.234375 C 6.238281 -0.917969 6.011719 -0.648438 5.742188 -0.429688 C 5.207031 0.0078125 4.554688 0.226562 3.789062 0.226562 C 2.597656 0.226562 1.785156 -0.171875 1.351562 -0.96875 C 1.117188 -1.394531 1 -1.964844 1 -2.679688 L 1 -8.367188 Z M 2.4375 -8.367188 "/>
</g>
<g id="glyph-0-10">
<path d="M 1.03125 -8.367188 L 2.367188 -8.367188 L 2.367188 -7.179688 C 2.761719 -7.667969 3.183594 -8.019531 3.625 -8.234375 C 4.066406 -8.449219 4.558594 -8.554688 5.101562 -8.554688 C 6.289062 -8.554688 7.089844 -8.140625 7.507812 -7.3125 C 7.738281 -6.859375 7.851562 -6.210938 7.851562 -5.367188 L 7.851562 0 L 6.421875 0 L 6.421875 -5.273438 C 6.421875 -5.785156 6.347656 -6.195312 6.195312 -6.507812 C 5.945312 -7.027344 5.492188 -7.289062 4.835938 -7.289062 C 4.503906 -7.289062 4.230469 -7.253906 4.015625 -7.1875 C 3.628906 -7.074219 3.292969 -6.84375 3 -6.5 C 2.765625 -6.222656 2.613281 -5.9375 2.542969 -5.644531 C 2.472656 -5.351562 2.4375 -4.929688 2.4375 -4.382812 L 2.4375 0 L 1.03125 0 Z M 1.03125 -8.367188 "/>
</g>
<g id="glyph-0-11">
<path d="M 1.867188 -2.625 C 1.910156 -2.15625 2.027344 -1.796875 2.21875 -1.546875 C 2.574219 -1.09375 3.1875 -0.867188 4.0625 -0.867188 C 4.582031 -0.867188 5.042969 -0.980469 5.4375 -1.207031 C 5.832031 -1.433594 6.03125 -1.785156 6.03125 -2.257812 C 6.03125 -2.617188 5.871094 -2.890625 5.554688 -3.078125 C 5.351562 -3.191406 4.949219 -3.324219 4.351562 -3.476562 L 3.234375 -3.757812 C 2.519531 -3.933594 1.996094 -4.132812 1.65625 -4.351562 C 1.050781 -4.730469 0.75 -5.257812 0.75 -5.929688 C 0.75 -6.722656 1.035156 -7.363281 1.605469 -7.851562 C 2.175781 -8.339844 2.941406 -8.585938 3.90625 -8.585938 C 5.167969 -8.585938 6.074219 -8.214844 6.632812 -7.476562 C 6.980469 -7.007812 7.152344 -6.503906 7.140625 -5.960938 L 5.8125 -5.960938 C 5.785156 -6.277344 5.675781 -6.566406 5.476562 -6.828125 C 5.152344 -7.199219 4.59375 -7.382812 3.796875 -7.382812 C 3.265625 -7.382812 2.863281 -7.28125 2.589844 -7.078125 C 2.316406 -6.875 2.179688 -6.605469 2.179688 -6.273438 C 2.179688 -5.910156 2.359375 -5.617188 2.71875 -5.398438 C 2.925781 -5.269531 3.234375 -5.152344 3.640625 -5.054688 L 4.570312 -4.828125 C 5.582031 -4.582031 6.257812 -4.347656 6.601562 -4.117188 C 7.148438 -3.757812 7.421875 -3.191406 7.421875 -2.421875 C 7.421875 -1.675781 7.140625 -1.035156 6.574219 -0.492188 C 6.007812 0.0507812 5.148438 0.320312 3.992188 0.320312 C 2.746094 0.320312 1.867188 0.0390625 1.347656 -0.527344 C 0.828125 -1.09375 0.550781 -1.792969 0.515625 -2.625 Z M 1.867188 -2.625 "/>
</g>
<g id="glyph-0-12">
<path d="M 0.367188 2 L 2.03125 2 L 2.03125 -10.40625 L 0.367188 -10.40625 L 0.367188 -11.554688 L 3.367188 -11.554688 L 3.367188 3.148438 L 0.367188 3.148438 Z M 0.367188 2 "/>
</g>
<g id="glyph-0-13">
<path d="M 4.328125 -11.1875 C 5.777344 -11.1875 6.824219 -10.589844 7.46875 -9.398438 C 7.96875 -8.476562 8.21875 -7.214844 8.21875 -5.609375 C 8.21875 -4.089844 7.992188 -2.832031 7.539062 -1.835938 C 6.882812 -0.410156 5.808594 0.304688 4.320312 0.304688 C 2.976562 0.304688 1.976562 -0.277344 1.320312 -1.445312 C 0.773438 -2.417969 0.5 -3.726562 0.5 -5.367188 C 0.5 -6.636719 0.664062 -7.730469 0.992188 -8.640625 C 1.605469 -10.339844 2.71875 -11.1875 4.328125 -11.1875 Z M 4.3125 -0.976562 C 5.042969 -0.976562 5.621094 -1.300781 6.054688 -1.945312 C 6.488281 -2.589844 6.703125 -3.792969 6.703125 -5.554688 C 6.703125 -6.824219 6.546875 -7.871094 6.234375 -8.691406 C 5.921875 -9.511719 5.316406 -9.921875 4.414062 -9.921875 C 3.585938 -9.921875 2.980469 -9.53125 2.597656 -8.753906 C 2.214844 -7.976562 2.023438 -6.828125 2.023438 -5.3125 C 2.023438 -4.171875 2.144531 -3.253906 2.390625 -2.5625 C 2.765625 -1.503906 3.40625 -0.976562 4.3125 -0.976562 Z M 4.3125 -0.976562 "/>
</g>
<g id="glyph-0-14">
<path d="M 1.367188 -1.703125 L 3 -1.703125 L 3 0 L 1.367188 0 Z M 1.367188 -1.703125 "/>
</g>
<g id="glyph-0-15">
<path d="M 0.5 0 C 0.550781 -0.964844 0.75 -1.800781 1.097656 -2.515625 C 1.445312 -3.230469 2.121094 -3.878906 3.125 -4.460938 L 4.625 -5.328125 C 5.296875 -5.71875 5.769531 -6.050781 6.039062 -6.328125 C 6.464844 -6.761719 6.679688 -7.253906 6.679688 -7.8125 C 6.679688 -8.464844 6.484375 -8.980469 6.09375 -9.363281 C 5.703125 -9.746094 5.183594 -9.9375 4.53125 -9.9375 C 3.566406 -9.9375 2.902344 -9.574219 2.53125 -8.84375 C 2.332031 -8.453125 2.222656 -7.910156 2.203125 -7.21875 L 0.773438 -7.21875 C 0.789062 -8.191406 0.96875 -8.988281 1.3125 -9.601562 C 1.921875 -10.683594 2.996094 -11.226562 4.539062 -11.226562 C 5.820312 -11.226562 6.757812 -10.878906 7.347656 -10.1875 C 7.9375 -9.496094 8.234375 -8.722656 8.234375 -7.875 C 8.234375 -6.980469 7.917969 -6.214844 7.289062 -5.578125 C 6.925781 -5.207031 6.269531 -4.761719 5.328125 -4.234375 L 4.257812 -3.640625 C 3.746094 -3.359375 3.347656 -3.089844 3.054688 -2.835938 C 2.535156 -2.382812 2.207031 -1.878906 2.070312 -1.328125 L 8.179688 -1.328125 L 8.179688 0 Z M 0.5 0 "/>
</g>
<g id="glyph-0-16">
<path d="M 1.976562 -2.851562 C 2.070312 -2.050781 2.441406 -1.496094 3.09375 -1.1875 C 3.425781 -1.03125 3.8125 -0.953125 4.25 -0.953125 C 5.082031 -0.953125 5.699219 -1.21875 6.101562 -1.75 C 6.503906 -2.28125 6.703125 -2.871094 6.703125 -3.515625 C 6.703125 -4.296875 6.464844 -4.902344 5.988281 -5.328125 C 5.511719 -5.753906 4.941406 -5.96875 4.273438 -5.96875 C 3.789062 -5.96875 3.375 -5.875 3.027344 -5.6875 C 2.679688 -5.5 2.386719 -5.238281 2.140625 -4.90625 L 0.921875 -4.976562 L 1.773438 -11 L 7.585938 -11 L 7.585938 -9.640625 L 2.828125 -9.640625 L 2.351562 -6.53125 C 2.613281 -6.730469 2.859375 -6.878906 3.09375 -6.976562 C 3.511719 -7.148438 3.992188 -7.234375 4.539062 -7.234375 C 5.566406 -7.234375 6.433594 -6.902344 7.148438 -6.242188 C 7.863281 -5.582031 8.21875 -4.742188 8.21875 -3.726562 C 8.21875 -2.667969 7.890625 -1.738281 7.238281 -0.929688 C 6.585938 -0.121094 5.542969 0.28125 4.109375 0.28125 C 3.199219 0.28125 2.390625 0.0234375 1.691406 -0.488281 C 0.992188 -1 0.597656 -1.789062 0.515625 -2.851562 Z M 1.976562 -2.851562 "/>
</g>
<g id="glyph-0-17">
<path d="M 8.367188 -11 L 8.367188 -9.773438 C 8.007812 -9.425781 7.53125 -8.816406 6.933594 -7.953125 C 6.335938 -7.089844 5.808594 -6.15625 5.351562 -5.15625 C 4.898438 -4.183594 4.554688 -3.292969 4.320312 -2.492188 C 4.167969 -1.976562 3.972656 -1.144531 3.734375 0 L 2.179688 0 C 2.535156 -2.136719 3.316406 -4.261719 4.523438 -6.375 C 5.238281 -7.613281 5.988281 -8.683594 6.773438 -9.585938 L 0.585938 -9.585938 L 0.585938 -11 Z M 8.367188 -11 "/>
</g>
<g id="glyph-0-18">
<path d="M 1.53125 -7.921875 L 1.53125 -9 C 2.546875 -9.097656 3.253906 -9.265625 3.65625 -9.496094 C 4.058594 -9.726562 4.355469 -10.277344 4.554688 -11.140625 L 5.664062 -11.140625 L 5.664062 0 L 4.164062 0 L 4.164062 -7.921875 Z M 1.53125 -7.921875 "/>
</g>
<g id="glyph-1-0">
<path d="M -11.476562 -0.328125 L -11.476562 -2.140625 L -5.960938 -5.4375 L -11.476562 -8.734375 L -11.476562 -10.554688 L -4.625 -6.21875 L 0 -6.21875 L 0 -4.664062 L -4.625 -4.664062 Z M -11.476562 -0.328125 "/>
</g>
<g id="glyph-1-1">
<rect x="0" y="0" width="0" height="0" mask="url(#mask-1)"/>
</g>
<g id="glyph-1-2">
<path d="M -11.554688 -1 L -11.554688 -4 L -10.40625 -4 L -10.40625 -2.328125 L 2 -2.328125 L 2 -4 L 3.148438 -4 L 3.148438 -1 Z M -11.554688 -1 "/>
</g>
<g id="glyph-1-3">
<path d="M -2.226562 -2.109375 C -1.820312 -2.109375 -1.5 -2.257812 -1.265625 -2.554688 C -1.03125 -2.851562 -0.914062 -3.203125 -0.914062 -3.609375 C -0.914062 -4.105469 -1.027344 -4.582031 -1.257812 -5.046875 C -1.636719 -5.828125 -2.261719 -6.21875 -3.125 -6.21875 L -4.257812 -6.21875 C -4.148438 -6.046875 -4.058594 -5.824219 -3.984375 -5.554688 C -3.910156 -5.285156 -3.859375 -5.019531 -3.828125 -4.757812 L -3.71875 -3.90625 C -3.652344 -3.394531 -3.542969 -3.011719 -3.398438 -2.757812 C -3.152344 -2.324219 -2.761719 -2.109375 -2.226562 -2.109375 Z M -5.070312 -5.515625 C -5.113281 -5.839844 -5.246094 -6.054688 -5.476562 -6.164062 C -5.601562 -6.226562 -5.78125 -6.257812 -6.015625 -6.257812 C -6.496094 -6.257812 -6.84375 -6.085938 -7.058594 -5.746094 C -7.273438 -5.40625 -7.382812 -4.917969 -7.382812 -4.28125 C -7.382812 -3.546875 -7.183594 -3.027344 -6.789062 -2.71875 C -6.570312 -2.546875 -6.246094 -2.433594 -5.8125 -2.382812 L -5.8125 -1.070312 C -6.84375 -1.097656 -7.5625 -1.429688 -7.964844 -2.074219 C -8.367188 -2.71875 -8.570312 -3.464844 -8.570312 -4.3125 C -8.570312 -5.296875 -8.382812 -6.097656 -8.007812 -6.710938 C -7.632812 -7.320312 -7.050781 -7.625 -6.257812 -7.625 L -1.4375 -7.625 C -1.292969 -7.625 -1.175781 -7.65625 -1.085938 -7.714844 C -0.996094 -7.773438 -0.953125 -7.902344 -0.953125 -8.09375 C -0.953125 -8.15625 -0.957031 -8.226562 -0.964844 -8.304688 C -0.972656 -8.382812 -0.984375 -8.464844 -1 -8.554688 L 0.0390625 -8.554688 C 0.101562 -8.335938 0.140625 -8.167969 0.15625 -8.054688 C 0.171875 -7.941406 0.179688 -7.785156 0.179688 -7.585938 C 0.179688 -7.101562 0.0078125 -6.75 -0.335938 -6.53125 C -0.519531 -6.417969 -0.777344 -6.335938 -1.109375 -6.289062 C -0.734375 -6.003906 -0.410156 -5.589844 -0.132812 -5.054688 C 0.144531 -4.519531 0.28125 -3.925781 0.28125 -3.28125 C 0.28125 -2.503906 0.046875 -1.871094 -0.425781 -1.378906 C -0.898438 -0.886719 -1.488281 -0.640625 -2.195312 -0.640625 C -2.972656 -0.640625 -3.574219 -0.882812 -4 -1.367188 C -4.425781 -1.851562 -4.691406 -2.488281 -4.789062 -3.273438 Z M -5.070312 -5.515625 "/>
</g>
<g id="glyph-1-4">
<path d="M -8.367188 -1.070312 L -8.367188 -2.40625 L -6.921875 -2.40625 C -7.203125 -2.515625 -7.546875 -2.785156 -7.949219 -3.210938 C -8.351562 -3.636719 -8.554688 -4.128906 -8.554688 -4.6875 C -8.554688 -4.714844 -8.550781 -4.757812 -8.546875 -4.820312 C -8.542969 -4.882812 -8.53125 -4.988281 -8.515625 -5.140625 L -7.03125 -5.140625 C -7.046875 -5.058594 -7.058594 -4.980469 -7.0625 -4.910156 C -7.066406 -4.839844 -7.070312 -4.761719 -7.070312 -4.679688 C -7.070312 -3.972656 -6.84375 -3.425781 -6.386719 -3.046875 C -5.929688 -2.667969 -5.40625 -2.476562 -4.8125 -2.476562 L 0 -2.476562 L 0 -1.070312 Z M -8.367188 -1.070312 "/>
</g>
<g id="glyph-1-5">
<path d="M -11.515625 -0.921875 L -11.515625 -2.289062 L -7.351562 -2.289062 C -7.753906 -2.597656 -8.058594 -2.964844 -8.269531 -3.390625 C -8.480469 -3.816406 -8.585938 -4.28125 -8.585938 -4.78125 C -8.585938 -5.824219 -8.226562 -6.667969 -7.511719 -7.316406 C -6.796875 -7.964844 -5.738281 -8.289062 -4.34375 -8.289062 C -3.019531 -8.289062 -1.921875 -7.96875 -1.046875 -7.328125 C -0.171875 -6.6875 0.265625 -5.800781 0.265625 -4.664062 C 0.265625 -4.027344 0.113281 -3.492188 -0.195312 -3.054688 C -0.378906 -2.792969 -0.667969 -2.515625 -1.070312 -2.21875 L 0 -2.21875 L 0 -0.921875 Z M -0.976562 -4.578125 C -0.976562 -5.339844 -1.277344 -5.90625 -1.882812 -6.285156 C -2.488281 -6.664062 -3.285156 -6.851562 -4.273438 -6.851562 C -5.152344 -6.851562 -5.882812 -6.664062 -6.460938 -6.285156 C -7.039062 -5.90625 -7.328125 -5.351562 -7.328125 -4.617188 C -7.328125 -3.976562 -7.089844 -3.414062 -6.617188 -2.933594 C -6.144531 -2.453125 -5.363281 -2.210938 -4.273438 -2.210938 C -3.488281 -2.210938 -2.847656 -2.308594 -2.359375 -2.507812 C -1.4375 -2.878906 -0.976562 -3.566406 -0.976562 -4.578125 Z M -0.976562 -4.578125 "/>
</g>
<g id="glyph-1-6">
<path d="M -8.328125 -1.03125 L -8.328125 -2.460938 L 0 -2.460938 L 0 -1.03125 Z M -11.476562 -1.03125 L -11.476562 -2.460938 L -9.882812 -2.460938 L -9.882812 -1.03125 Z M -11.476562 -1.03125 "/>
</g>
<g id="glyph-1-7">
<path d="M -10.703125 -1.3125 L -10.703125 -2.734375 L -8.367188 -2.734375 L -8.367188 -4.070312 L -7.21875 -4.070312 L -7.21875 -2.734375 L -1.757812 -2.734375 C -1.464844 -2.734375 -1.269531 -2.832031 -1.171875 -3.03125 C -1.113281 -3.140625 -1.085938 -3.324219 -1.085938 -3.578125 C -1.085938 -3.644531 -1.085938 -3.71875 -1.089844 -3.796875 C -1.09375 -3.875 -1.097656 -3.964844 -1.109375 -4.070312 L 0 -4.070312 C 0.046875 -3.910156 0.0820312 -3.742188 0.101562 -3.566406 C 0.121094 -3.390625 0.132812 -3.203125 0.132812 -3 C 0.132812 -2.34375 -0.0351562 -1.898438 -0.371094 -1.664062 C -0.707031 -1.429688 -1.144531 -1.3125 -1.679688 -1.3125 L -7.21875 -1.3125 L -7.21875 -0.179688 L -8.367188 -0.179688 L -8.367188 -1.3125 Z M -10.703125 -1.3125 "/>
</g>
<g id="glyph-1-8">
<path d="M -8.367188 -6.257812 L -8.367188 -7.8125 C -7.832031 -7.613281 -6.605469 -7.175781 -4.695312 -6.492188 C -3.257812 -5.980469 -2.085938 -5.554688 -1.179688 -5.210938 C 0.957031 -4.398438 2.257812 -3.824219 2.726562 -3.492188 C 3.195312 -3.160156 3.429688 -2.585938 3.429688 -1.773438 C 3.429688 -1.574219 3.421875 -1.421875 3.40625 -1.316406 C 3.390625 -1.210938 3.363281 -1.078125 3.320312 -0.921875 L 2.039062 -0.921875 C 2.105469 -1.167969 2.148438 -1.34375 2.164062 -1.453125 C 2.179688 -1.5625 2.1875 -1.660156 2.1875 -1.742188 C 2.1875 -2.003906 2.144531 -2.195312 2.058594 -2.316406 C 1.972656 -2.4375 1.867188 -2.542969 1.742188 -2.625 C 1.699219 -2.652344 1.488281 -2.746094 1.101562 -2.90625 C 0.714844 -3.066406 0.429688 -3.183594 0.242188 -3.257812 L -8.367188 -0.164062 L -8.367188 -1.757812 L -1.554688 -4 Z M -8.367188 -6.257812 "/>
</g>
<g id="glyph-1-9">
<path d="M -8.367188 -2.4375 L -2.8125 -2.4375 C -2.386719 -2.4375 -2.035156 -2.503906 -1.765625 -2.640625 C -1.265625 -2.890625 -1.015625 -3.355469 -1.015625 -4.039062 C -1.015625 -5.019531 -1.453125 -5.683594 -2.328125 -6.039062 C -2.796875 -6.230469 -3.441406 -6.328125 -4.257812 -6.328125 L -8.367188 -6.328125 L -8.367188 -7.734375 L 0 -7.734375 L 0 -6.40625 L -1.234375 -6.421875 C -0.917969 -6.238281 -0.648438 -6.011719 -0.429688 -5.742188 C 0.0078125 -5.207031 0.226562 -4.554688 0.226562 -3.789062 C 0.226562 -2.597656 -0.171875 -1.785156 -0.96875 -1.351562 C -1.394531 -1.117188 -1.964844 -1 -2.679688 -1 L -8.367188 -1 Z M -8.367188 -2.4375 "/>
</g>
<g id="glyph-1-10">
<path d="M -8.367188 -1.03125 L -8.367188 -2.367188 L -7.179688 -2.367188 C -7.667969 -2.761719 -8.019531 -3.183594 -8.234375 -3.625 C -8.449219 -4.066406 -8.554688 -4.558594 -8.554688 -5.101562 C -8.554688 -6.289062 -8.140625 -7.089844 -7.3125 -7.507812 C -6.859375 -7.738281 -6.210938 -7.851562 -5.367188 -7.851562 L 0 -7.851562 L 0 -6.421875 L -5.273438 -6.421875 C -5.785156 -6.421875 -6.195312 -6.347656 -6.507812 -6.195312 C -7.027344 -5.945312 -7.289062 -5.492188 -7.289062 -4.835938 C -7.289062 -4.503906 -7.253906 -4.230469 -7.1875 -4.015625 C -7.074219 -3.628906 -6.84375 -3.292969 -6.5 -3 C -6.222656 -2.765625 -5.9375 -2.613281 -5.644531 -2.542969 C -5.351562 -2.472656 -4.929688 -2.4375 -4.382812 -2.4375 L 0 -2.4375 L 0 -1.03125 Z M -8.367188 -1.03125 "/>
</g>
<g id="glyph-1-11">
<path d="M -2.625 -1.867188 C -2.15625 -1.910156 -1.796875 -2.027344 -1.546875 -2.21875 C -1.09375 -2.574219 -0.867188 -3.1875 -0.867188 -4.0625 C -0.867188 -4.582031 -0.980469 -5.042969 -1.207031 -5.4375 C -1.433594 -5.832031 -1.785156 -6.03125 -2.257812 -6.03125 C -2.617188 -6.03125 -2.890625 -5.871094 -3.078125 -5.554688 C -3.191406 -5.351562 -3.324219 -4.949219 -3.476562 -4.351562 L -3.757812 -3.234375 C -3.933594 -2.519531 -4.132812 -1.996094 -4.351562 -1.65625 C -4.730469 -1.050781 -5.257812 -0.75 -5.929688 -0.75 C -6.722656 -0.75 -7.363281 -1.035156 -7.851562 -1.605469 C -8.339844 -2.175781 -8.585938 -2.941406 -8.585938 -3.90625 C -8.585938 -5.167969 -8.214844 -6.074219 -7.476562 -6.632812 C -7.007812 -6.980469 -6.503906 -7.152344 -5.960938 -7.140625 L -5.960938 -5.8125 C -6.277344 -5.785156 -6.566406 -5.675781 -6.828125 -5.476562 C -7.199219 -5.152344 -7.382812 -4.59375 -7.382812 -3.796875 C -7.382812 -3.265625 -7.28125 -2.863281 -7.078125 -2.589844 C -6.875 -2.316406 -6.605469 -2.179688 -6.273438 -2.179688 C -5.910156 -2.179688 -5.617188 -2.359375 -5.398438 -2.71875 C -5.269531 -2.925781 -5.152344 -3.234375 -5.054688 -3.640625 L -4.828125 -4.570312 C -4.582031 -5.582031 -4.347656 -6.257812 -4.117188 -6.601562 C -3.757812 -7.148438 -3.191406 -7.421875 -2.421875 -7.421875 C -1.675781 -7.421875 -1.035156 -7.140625 -0.492188 -6.574219 C 0.0507812 -6.007812 0.320312 -5.148438 0.320312 -3.992188 C 0.320312 -2.746094 0.0390625 -1.867188 -0.527344 -1.347656 C -1.09375 -0.828125 -1.792969 -0.550781 -2.625 -0.515625 Z M -2.625 -1.867188 "/>
</g>
<g id="glyph-1-12">
<path d="M 2 -0.367188 L 2 -2.03125 L -10.40625 -2.03125 L -10.40625 -0.367188 L -11.554688 -0.367188 L -11.554688 -3.367188 L 3.148438 -3.367188 L 3.148438 -0.367188 Z M 2 -0.367188 "/>
</g>
</g>
<clipPath id="clip-0">
<path clip-rule="nonzero" d="M 73 24 L 776 24 L 776 555 L 73 555 Z M 73 24 "/>
</clipPath>
<clipPath id="clip-1">
<path clip-rule="nonzero" d="M 73 523 L 105 523 L 105 555 L 73 555 Z M 73 523 "/>
</clipPath>
<clipPath id="clip-2">
<path clip-rule="nonzero" d="M 73 523 L 123 523 L 123 555 L 73 555 Z M 73 523 "/>
</clipPath>
<clipPath id="clip-3">
<path clip-rule="nonzero" d="M 77 523 L 141 523 L 141 555 L 77 555 Z M 77 523 "/>
</clipPath>
<clipPath id="clip-4">
<path clip-rule="nonzero" d="M 95 523 L 159 523 L 159 555 L 95 555 Z M 95 523 "/>
</clipPath>
<clipPath id="clip-5">
<path clip-rule="nonzero" d="M 113 523 L 177 523 L 177 555 L 113 555 Z M 113 523 "/>
</clipPath>
<clipPath id="clip-6">
<path clip-rule="nonzero" d="M 131 522 L 195 522 L 195 555 L 131 555 Z M 131 522 "/>
</clipPath>
<clipPath id="clip-7">
<path clip-rule="nonzero" d="M 149 521 L 213 521 L 213 555 L 149 555 Z M 149 521 "/>
</clipPath>
<clipPath id="clip-8">
<path clip-rule="nonzero" d="M 167 520 L 231 520 L 231 555 L 167 555 Z M 167 520 "/>
</clipPath>
<clipPath id="clip-9">
<path clip-rule="nonzero" d="M 185 519 L 249 519 L 249 555 L 185 555 Z M 185 519 "/>
</clipPath>
<clipPath id="clip-10">
<path clip-rule="nonzero" d="M 203 516 L 267 516 L 267 555 L 203 555 Z M 203 516 "/>
</clipPath>
<clipPath id="clip-11">
<path clip-rule="nonzero" d="M 221 515 L 285 515 L 285 555 L 221 555 Z M 221 515 "/>
</clipPath>
<clipPath id="clip-12">
<path clip-rule="nonzero" d="M 239 513 L 303 513 L 303 555 L 239 555 Z M 239 513 "/>
</clipPath>
<clipPath id="clip-13">
<path clip-rule="nonzero" d="M 258 508 L 321 508 L 321 555 L 258 555 Z M 258 508 "/>
</clipPath>
<clipPath id="clip-14">
<path clip-rule="nonzero" d="M 276 505 L 339 505 L 339 555 L 276 555 Z M 276 505 "/>
</clipPath>
<clipPath id="clip-15">
<path clip-rule="nonzero" d="M 294 496 L 357 496 L 357 555 L 294 555 Z M 294 496 "/>
</clipPath>
<clipPath id="clip-16">
<path clip-rule="nonzero" d="M 726 24 L 776 24 L 776 33 L 726 33 Z M 726 24 "/>
</clipPath>
<clipPath id="clip-17">
<path clip-rule="nonzero" d="M 744 24 L 776 24 L 776 59 L 744 59 Z M 744 24 "/>
</clipPath>
<image id="source-72" x="0" y="0" width="0" height="0"/>
<mask id="mask-0">
<use xlink:href="#source-72"/>
</mask>
<image id="source-91" x="0" y="0" width="0" height="0"/>
<mask id="mask-1">
<use xlink:href="#source-91"/>
</mask>
</defs>
<rect x="-80" y="-60" width="960" height="720" fill="rgb(100%, 100%, 100%)" fill-opacity="1"/>
<path fill="none" stroke-width="2" stroke-linecap="butt" stroke-linejoin="miter" stroke="rgb(75%, 75%, 75%)" stroke-opacity="1" stroke-miterlimit="10" d="M 73 555 L 73 24 "/>
<path fill="none" stroke-width="2" stroke-linecap="butt" stroke-linejoin="miter" stroke="rgb(75%, 75%, 75%)" stroke-opacity="1" stroke-miterlimit="10" d="M 249 555 L 249 24 "/>
<path fill="none" stroke-width="2" stroke-linecap="butt" stroke-linejoin="miter" stroke="rgb(75%, 75%, 75%)" stroke-opacity="1" stroke-miterlimit="10" d="M 425 555 L 425 24 "/>
<path fill="none" stroke-width="2" stroke-linecap="butt" stroke-linejoin="miter" stroke="rgb(75%, 75%, 75%)" stroke-opacity="1" stroke-miterlimit="10" d="M 600 555 L 600 24 "/>
<path fill="none" stroke-width="2" stroke-linecap="butt" stroke-linejoin="miter" stroke="rgb(75%, 75%, 75%)" stroke-opacity="1" stroke-miterlimit="10" d="M 776 555 L 776 24 "/>
<path fill="none" stroke-width="2" stroke-linecap="butt" stroke-linejoin="miter" stroke="rgb(75%, 75%, 75%)" stroke-opacity="1" stroke-miterlimit="10" d="M 73 555 L 776 555 "/>
<path fill="none" stroke-width="2" stroke-linecap="butt" stroke-linejoin="miter" stroke="rgb(75%, 75%, 75%)" stroke-opacity="1" stroke-miterlimit="10" d="M 73 422 L 776 422 "/>
<path fill="none" stroke-width="2" stroke-linecap="butt" stroke-linejoin="miter" stroke="rgb(75%, 75%, 75%)" stroke-opacity="1" stroke-miterlimit="10" d="M 73 289 L 776 289 "/>
<path fill="none" stroke-width="2" stroke-linecap="butt" stroke-linejoin="miter" stroke="rgb(75%, 75%, 75%)" stroke-opacity="1" stroke-miterlimit="10" d="M 73 157 L 776 157 "/>
<path fill="none" stroke-width="2" stroke-linecap="butt" stroke-linejoin="miter" stroke="rgb(75%, 75%, 75%)" stroke-opacity="1" stroke-miterlimit="10" d="M 73 24 L 776 24 "/>
<g clip-path="url(#clip-0)">
<path fill-rule="nonzero" fill="rgb(27.1%, 52.2%, 53.3%)" fill-opacity="0.5" d="M 73 555 L 91.027344 554.988281 L 109.050781 554.921875 L 127.078125 554.734375 L 145.101562 554.371094 L 163.128906 553.769531 L 181.152344 552.875 L 199.179688 551.621094 L 217.207031 549.957031 L 235.230469 547.820312 L 253.257812 545.152344 L 271.28125 541.894531 L 289.308594 537.984375 L 307.332031 533.367188 L 325.359375 527.980469 L 343.382812 521.765625 L 361.410156 514.667969 L 379.4375 506.621094 L 397.460938 497.574219 L 415.488281 487.460938 L 433.511719 476.226562 L 451.539062 463.808594 L 469.5625 450.152344 L 487.589844 435.195312 L 505.617188 418.878906 L 523.640625 401.144531 L 541.667969 381.933594 L 559.691406 361.1875 L 577.71875 338.84375 L 595.742188 314.847656 L 613.769531 289.136719 L 631.792969 261.65625 L 649.820312 232.339844 L 667.847656 201.136719 L 685.871094 167.984375 L 703.898438 132.820312 L 721.921875 95.589844 L 739.949219 56.230469 L 757.972656 14.6875 L 776 -29.101562 L 776 77.101562 L 757.972656 112.925781 L 739.949219 146.917969 L 721.921875 179.117188 L 703.898438 209.582031 L 685.871094 238.351562 L 667.847656 265.476562 L 649.820312 291.007812 L 631.792969 314.992188 L 613.769531 337.476562 L 595.742188 358.511719 L 577.71875 378.144531 L 559.691406 396.425781 L 541.667969 413.398438 L 523.640625 429.117188 L 505.617188 443.628906 L 487.589844 456.976562 L 469.5625 469.214844 L 451.539062 480.390625 L 433.511719 490.546875 L 415.488281 499.742188 L 397.460938 508.015625 L 379.4375 515.417969 L 361.410156 522 L 343.382812 527.808594 L 325.359375 532.894531 L 307.332031 537.300781 L 289.308594 541.078125 L 271.28125 544.277344 L 253.257812 546.945312 L 235.230469 549.125 L 217.207031 550.875 L 199.179688 552.238281 L 181.152344 553.261719 L 163.128906 553.992188 L 145.101562 554.484375 L 127.078125 554.78125 L 109.050781 554.9375 L 91.027344 554.992188 Z M 73 555 "/>
<path fill="none" stroke-width="3" stroke-linecap="butt" stroke-linejoin="round" stroke="rgb(27.1%, 52.2%, 53.3%)" stroke-opacity="1" stroke-dasharray="10 10 10 10" stroke-miterlimit="10" d="M 73.5 554.5 L 91.527344 554.492188 L 109.550781 554.429688 L 127.578125 554.257812 L 145.601562 553.925781 L 163.628906 553.382812 L 181.652344 552.566406 L 199.679688 551.429688 L 217.707031 549.917969 L 235.730469 547.972656 L 253.757812 545.546875 L 271.78125 542.585938 L 289.808594 539.03125 L 307.832031 534.832031 L 325.859375 529.9375 L 343.882812 524.289062 L 361.910156 517.835938 L 379.9375 510.519531 L 397.960938 502.292969 L 415.988281 493.101562 L 434.011719 482.886719 L 452.039062 471.597656 L 470.0625 459.183594 L 488.089844 445.585938 L 506.117188 430.753906 L 524.140625 414.632812 L 542.167969 397.167969 L 560.191406 378.304688 L 578.21875 357.996094 L 596.242188 336.179688 L 614.269531 312.808594 L 632.292969 287.824219 L 650.320312 261.175781 L 668.347656 232.804688 L 686.371094 202.667969 L 704.398438 170.699219 L 722.421875 136.855469 L 740.449219 101.074219 L 758.472656 63.308594 L 776.5 23.5 "/>
</g>
<g clip-path="url(#clip-1)">
<path fill="none" stroke-width="2" stroke-linecap="butt" stroke-linejoin="miter" stroke="rgb(0%, 0%, 0%)" stroke-opacity="1" stroke-miterlimit="10" d="M 76 555 C 76 559 70 559 70 555 C 70 551 76 551 76 555 Z M 76 555 "/>
</g>
<g clip-path="url(#clip-2)">
<path fill="none" stroke-width="2" stroke-linecap="butt" stroke-linejoin="miter" stroke="rgb(0%, 0%, 0%)" stroke-opacity="1" stroke-miterlimit="10" d="M 94.027344 554.988281 C 94.027344 558.988281 88.027344 558.988281 88.027344 554.988281 C 88.027344 550.988281 94.027344 550.988281 94.027344 554.988281 Z M 94.027344 554.988281 "/>
</g>
<g clip-path="url(#clip-3)">
<path fill="none" stroke-width="2" stroke-linecap="butt" stroke-linejoin="miter" stroke="rgb(0%, 0%, 0%)" stroke-opacity="1" stroke-miterlimit="10" d="M 112.050781 554.9375 C 112.050781 558.9375 106.050781 558.9375 106.050781 554.9375 C 106.050781 550.9375 112.050781 550.9375 112.050781 554.9375 Z M 112.050781 554.9375 "/>
</g>
<g clip-path="url(#clip-4)">
<path fill="none" stroke-width="2" stroke-linecap="butt" stroke-linejoin="miter" stroke="rgb(0%, 0%, 0%)" stroke-opacity="1" stroke-miterlimit="10" d="M 130.078125 554.707031 C 130.078125 558.707031 124.078125 558.707031 124.078125 554.707031 C 124.078125 550.707031 130.078125 550.707031 130.078125 554.707031 Z M 130.078125 554.707031 "/>
</g>
<g clip-path="url(#clip-5)">
<path fill="none" stroke-width="2" stroke-linecap="butt" stroke-linejoin="miter" stroke="rgb(0%, 0%, 0%)" stroke-opacity="1" stroke-miterlimit="10" d="M 148.101562 554.421875 C 148.101562 558.421875 142.101562 558.421875 142.101562 554.421875 C 142.101562 550.421875 148.101562 550.421875 148.101562 554.421875 Z M 148.101562 554.421875 "/>
</g>
<g clip-path="url(#clip-6)">
<path fill="none" stroke-width="2" stroke-linecap="butt" stroke-linejoin="miter" stroke="rgb(0%, 0%, 0%)" stroke-opacity="1" stroke-miterlimit="10" d="M 166.128906 554.035156 C 166.128906 558.035156 160.128906 558.035156 160.128906 554.035156 C 160.128906 550.035156 166.128906 550.035156 166.128906 554.035156 Z M 166.128906 554.035156 "/>
</g>
<g clip-path="url(#clip-7)">
<path fill="none" stroke-width="2" stroke-linecap="butt" stroke-linejoin="miter" stroke="rgb(0%, 0%, 0%)" stroke-opacity="1" stroke-miterlimit="10" d="M 184.152344 553.058594 C 184.152344 557.058594 178.152344 557.058594 178.152344 553.058594 C 178.152344 549.058594 184.152344 549.058594 184.152344 553.058594 Z M 184.152344 553.058594 "/>
</g>
<g clip-path="url(#clip-8)">
<path fill="none" stroke-width="2" stroke-linecap="butt" stroke-linejoin="miter" stroke="rgb(0%, 0%, 0%)" stroke-opacity="1" stroke-miterlimit="10" d="M 202.179688 551.921875 C 202.179688 555.921875 196.179688 555.921875 196.179688 551.921875 C 196.179688 547.921875 202.179688 547.921875 202.179688 551.921875 Z M 202.179688 551.921875 "/>
</g>
<g clip-path="url(#clip-9)">
<path fill="none" stroke-width="2" stroke-linecap="butt" stroke-linejoin="miter" stroke="rgb(0%, 0%, 0%)" stroke-opacity="1" stroke-miterlimit="10" d="M 220.207031 550.5 C 220.207031 554.5 214.207031 554.5 214.207031 550.5 C 214.207031 546.5 220.207031 546.5 220.207031 550.5 Z M 220.207031 550.5 "/>
</g>
<g clip-path="url(#clip-10)">
<path fill="none" stroke-width="2" stroke-linecap="butt" stroke-linejoin="miter" stroke="rgb(0%, 0%, 0%)" stroke-opacity="1" stroke-miterlimit="10" d="M 238.230469 548.03125 C 238.230469 552.03125 232.230469 552.03125 232.230469 548.03125 C 232.230469 544.03125 238.230469 544.03125 238.230469 548.03125 Z M 238.230469 548.03125 "/>
</g>
<g clip-path="url(#clip-11)">
<path fill="none" stroke-width="2" stroke-linecap="butt" stroke-linejoin="miter" stroke="rgb(0%, 0%, 0%)" stroke-opacity="1" stroke-miterlimit="10" d="M 256.257812 546.582031 C 256.257812 550.582031 250.257812 550.582031 250.257812 546.582031 C 250.257812 542.582031 256.257812 542.582031 256.257812 546.582031 Z M 256.257812 546.582031 "/>
</g>
<g clip-path="url(#clip-12)">
<path fill="none" stroke-width="2" stroke-linecap="butt" stroke-linejoin="miter" stroke="rgb(0%, 0%, 0%)" stroke-opacity="1" stroke-miterlimit="10" d="M 274.28125 544.632812 C 274.28125 548.632812 268.28125 548.632812 268.28125 544.632812 C 268.28125 540.632812 274.28125 540.632812 274.28125 544.632812 Z M 274.28125 544.632812 "/>
</g>
<g clip-path="url(#clip-13)">
<path fill="none" stroke-width="2" stroke-linecap="butt" stroke-linejoin="miter" stroke="rgb(0%, 0%, 0%)" stroke-opacity="1" stroke-miterlimit="10" d="M 292.308594 540.164062 C 292.308594 544.164062 286.308594 544.164062 286.308594 540.164062 C 286.308594 536.164062 292.308594 536.164062 292.308594 540.164062 Z M 292.308594 540.164062 "/>
</g>
<g clip-path="url(#clip-14)">
<path fill="none" stroke-width="2" stroke-linecap="butt" stroke-linejoin="miter" stroke="rgb(0%, 0%, 0%)" stroke-opacity="1" stroke-miterlimit="10" d="M 310.332031 536.644531 C 310.332031 540.644531 304.332031 540.644531 304.332031 536.644531 C 304.332031 532.644531 310.332031 532.644531 310.332031 536.644531 Z M 310.332031 536.644531 "/>
</g>
<g clip-path="url(#clip-15)">
<path fill="none" stroke-width="2" stroke-linecap="butt" stroke-linejoin="miter" stroke="rgb(0%, 0%, 0%)" stroke-opacity="1" stroke-miterlimit="10" d="M 328.359375 528.015625 C 328.359375 532.015625 322.359375 532.015625 322.359375 528.015625 C 322.359375 524.015625 328.359375 524.015625 328.359375 528.015625 Z M 328.359375 528.015625 "/>
</g>
<path fill="none" stroke-width="2" stroke-linecap="butt" stroke-linejoin="miter" stroke="rgb(0%, 0%, 0%)" stroke-opacity="1" stroke-miterlimit="10" d="M 346.382812 521.792969 C 346.382812 525.792969 340.382812 525.792969 340.382812 521.792969 C 340.382812 517.792969 346.382812 517.792969 346.382812 521.792969 Z M 346.382812 521.792969 "/>
<path fill="none" stroke-width="2" stroke-linecap="butt" stroke-linejoin="miter" stroke="rgb(0%, 0%, 0%)" stroke-opacity="1" stroke-miterlimit="10" d="M 364.410156 516.175781 C 364.410156 520.175781 358.410156 520.175781 358.410156 516.175781 C 358.410156 512.175781 364.410156 512.175781 364.410156 516.175781 Z M 364.410156 516.175781 "/>
<path fill="none" stroke-width="2" stroke-linecap="butt" stroke-linejoin="miter" stroke="rgb(0%, 0%, 0%)" stroke-opacity="1" stroke-miterlimit="10" d="M 382.4375 509.632812 C 382.4375 513.632812 376.4375 513.632812 376.4375 509.632812 C 376.4375 505.632812 382.4375 505.632812 382.4375 509.632812 Z M 382.4375 509.632812 "/>
<path fill="none" stroke-width="2" stroke-linecap="butt" stroke-linejoin="miter" stroke="rgb(0%, 0%, 0%)" stroke-opacity="1" stroke-miterlimit="10" d="M 400.460938 499.433594 C 400.460938 503.433594 394.460938 503.433594 394.460938 499.433594 C 394.460938 495.433594 400.460938 495.433594 400.460938 499.433594 Z M 400.460938 499.433594 "/>
<path fill="none" stroke-width="2" stroke-linecap="butt" stroke-linejoin="miter" stroke="rgb(0%, 0%, 0%)" stroke-opacity="1" stroke-miterlimit="10" d="M 418.488281 492.691406 C 418.488281 496.691406 412.488281 496.691406 412.488281 492.691406 C 412.488281 488.691406 418.488281 488.691406 418.488281 492.691406 Z M 418.488281 492.691406 "/>
<path fill="none" stroke-width="2" stroke-linecap="butt" stroke-linejoin="miter" stroke="rgb(0%, 0%, 0%)" stroke-opacity="1" stroke-miterlimit="10" d="M 436.511719 476.257812 C 436.511719 480.257812 430.511719 480.257812 430.511719 476.257812 C 430.511719 472.257812 436.511719 472.257812 436.511719 476.257812 Z M 436.511719 476.257812 "/>
<path fill="none" stroke-width="2" stroke-linecap="butt" stroke-linejoin="miter" stroke="rgb(0%, 0%, 0%)" stroke-opacity="1" stroke-miterlimit="10" d="M 454.539062 476.847656 C 454.539062 480.847656 448.539062 480.847656 448.539062 476.847656 C 448.539062 472.847656 454.539062 472.847656 454.539062 476.847656 Z M 454.539062 476.847656 "/>
<path fill="none" stroke-width="2" stroke-linecap="butt" stroke-linejoin="miter" stroke="rgb(0%, 0%, 0%)" stroke-opacity="1" stroke-miterlimit="10" d="M 472.5625 459.015625 C 472.5625 463.015625 466.5625 463.015625 466.5625 459.015625 C 466.5625 455.015625 472.5625 455.015625 472.5625 459.015625 Z M 472.5625 459.015625 "/>
<path fill="none" stroke-width="2" stroke-linecap="butt" stroke-linejoin="miter" stroke="rgb(0%, 0%, 0%)" stroke-opacity="1" stroke-miterlimit="10" d="M 490.589844 442.597656 C 490.589844 446.597656 484.589844 446.597656 484.589844 442.597656 C 484.589844 438.597656 490.589844 438.597656 490.589844 442.597656 Z M 490.589844 442.597656 "/>
<path fill="none" stroke-width="2" stroke-linecap="butt" stroke-linejoin="miter" stroke="rgb(0%, 0%, 0%)" stroke-opacity="1" stroke-miterlimit="10" d="M 508.617188 439.578125 C 508.617188 443.578125 502.617188 443.578125 502.617188 439.578125 C 502.617188 435.578125 508.617188 435.578125 508.617188 439.578125 Z M 508.617188 439.578125 "/>
<path fill="none" stroke-width="2" stroke-linecap="butt" stroke-linejoin="miter" stroke="rgb(0%, 0%, 0%)" stroke-opacity="1" stroke-miterlimit="10" d="M 526.640625 446.121094 C 526.640625 450.121094 520.640625 450.121094 520.640625 446.121094 C 520.640625 442.121094 526.640625 442.121094 526.640625 446.121094 Z M 526.640625 446.121094 "/>
<path fill="none" stroke-width="2" stroke-linecap="butt" stroke-linejoin="miter" stroke="rgb(0%, 0%, 0%)" stroke-opacity="1" stroke-miterlimit="10" d="M 544.667969 380.578125 C 544.667969 384.578125 538.667969 384.578125 538.667969 380.578125 C 538.667969 376.578125 544.667969 376.578125 544.667969 380.578125 Z M 544.667969 380.578125 "/>
<path fill="none" stroke-width="2" stroke-linecap="butt" stroke-linejoin="miter" stroke="rgb(0%, 0%, 0%)" stroke-opacity="1" stroke-miterlimit="10" d="M 562.691406 356.570312 C 562.691406 360.570312 556.691406 360.570312 556.691406 356.570312 C 556.691406 352.570312 562.691406 352.570312 562.691406 356.570312 Z M 562.691406 356.570312 "/>
<path fill="none" stroke-width="2" stroke-linecap="butt" stroke-linejoin="miter" stroke="rgb(0%, 0%, 0%)" stroke-opacity="1" stroke-miterlimit="10" d="M 580.71875 380.03125 C 580.71875 384.03125 574.71875 384.03125 574.71875 380.03125 C 574.71875 376.03125 580.71875 376.03125 580.71875 380.03125 Z M 580.71875 380.03125 "/>
<path fill="none" stroke-width="2" stroke-linecap="butt" stroke-linejoin="miter" stroke="rgb(0%, 0%, 0%)" stroke-opacity="1" stroke-miterlimit="10" d="M 598.742188 357.035156 C 598.742188 361.035156 592.742188 361.035156 592.742188 357.035156 C 592.742188 353.035156 598.742188 353.035156 598.742188 357.035156 Z M 598.742188 357.035156 "/>
<path fill="none" stroke-width="2" stroke-linecap="butt" stroke-linejoin="miter" stroke="rgb(0%, 0%, 0%)" stroke-opacity="1" stroke-miterlimit="10" d="M 616.769531 319.695312 C 616.769531 323.695312 610.769531 323.695312 610.769531 319.695312 C 610.769531 315.695312 616.769531 315.695312 616.769531 319.695312 Z M 616.769531 319.695312 "/>
<path fill="none" stroke-width="2" stroke-linecap="butt" stroke-linejoin="miter" stroke="rgb(0%, 0%, 0%)" stroke-opacity="1" stroke-miterlimit="10" d="M 634.792969 279.039062 C 634.792969 283.039062 628.792969 283.039062 628.792969 279.039062 C 628.792969 275.039062 634.792969 275.039062 634.792969 279.039062 Z M 634.792969 279.039062 "/>
<path fill="none" stroke-width="2" stroke-linecap="butt" stroke-linejoin="miter" stroke="rgb(0%, 0%, 0%)" stroke-opacity="1" stroke-miterlimit="10" d="M 652.820312 291.019531 C 652.820312 295.019531 646.820312 295.019531 646.820312 291.019531 C 646.820312 287.019531 652.820312 287.019531 652.820312 291.019531 Z M 652.820312 291.019531 "/>
<path fill="none" stroke-width="2" stroke-linecap="butt" stroke-linejoin="miter" stroke="rgb(0%, 0%, 0%)" stroke-opacity="1" stroke-miterlimit="10" d="M 670.847656 204.8125 C 670.847656 208.8125 664.847656 208.8125 664.847656 204.8125 C 664.847656 200.8125 670.847656 200.8125 670.847656 204.8125 Z M 670.847656 204.8125 "/>
<path fill="none" stroke-width="2" stroke-linecap="butt" stroke-linejoin="miter" stroke="rgb(0%, 0%, 0%)" stroke-opacity="1" stroke-miterlimit="10" d="M 688.871094 172.910156 C 688.871094 176.910156 682.871094 176.910156 682.871094 172.910156 C 682.871094 168.910156 688.871094 168.910156 688.871094 172.910156 Z M 688.871094 172.910156 "/>
<path fill="none" stroke-width="2" stroke-linecap="butt" stroke-linejoin="miter" stroke="rgb(0%, 0%, 0%)" stroke-opacity="1" stroke-miterlimit="10" d="M 706.898438 186.585938 C 706.898438 190.585938 700.898438 190.585938 700.898438 186.585938 C 700.898438 182.585938 706.898438 182.585938 706.898438 186.585938 Z M 706.898438 186.585938 "/>
<path fill="none" stroke-width="2" stroke-linecap="butt" stroke-linejoin="miter" stroke="rgb(0%, 0%, 0%)" stroke-opacity="1" stroke-miterlimit="10" d="M 724.921875 154.164062 C 724.921875 158.164062 718.921875 158.164062 718.921875 154.164062 C 718.921875 150.164062 724.921875 150.164062 724.921875 154.164062 Z M 724.921875 154.164062 "/>
<path fill="none" stroke-width="2" stroke-linecap="butt" stroke-linejoin="miter" stroke="rgb(0%, 0%, 0%)" stroke-opacity="1" stroke-miterlimit="10" d="M 742.949219 143.589844 C 742.949219 147.589844 736.949219 147.589844 736.949219 143.589844 C 736.949219 139.589844 742.949219 139.589844 742.949219 143.589844 Z M 742.949219 143.589844 "/>
<g clip-path="url(#clip-16)">
<path fill="none" stroke-width="2" stroke-linecap="butt" stroke-linejoin="miter" stroke="rgb(0%, 0%, 0%)" stroke-opacity="1" stroke-miterlimit="10" d="M 760.972656 1.425781 C 760.972656 5.425781 754.972656 5.425781 754.972656 1.425781 C 754.972656 -2.574219 760.972656 -2.574219 760.972656 1.425781 Z M 760.972656 1.425781 "/>
</g>
<g clip-path="url(#clip-17)">
<path fill="none" stroke-width="2" stroke-linecap="butt" stroke-linejoin="miter" stroke="rgb(0%, 0%, 0%)" stroke-opacity="1" stroke-miterlimit="10" d="M 779 27.203125 C 779 31.203125 773 31.203125 773 27.203125 C 773 23.203125 779 23.203125 779 27.203125 Z M 779 27.203125 "/>
</g>
<path fill="none" stroke-width="2" stroke-linecap="butt" stroke-linejoin="miter" stroke="rgb(0%, 0%, 0%)" stroke-opacity="1" stroke-miterlimit="10" d="M 72 555 L 777 555 "/>
<g fill="rgb(0%, 0%, 0%)" fill-opacity="1">
<use xlink:href="#glyph-0-0" x="364.410156" y="592.554688"/>
<use xlink:href="#glyph-0-1" x="375.082031" y="592.554688"/>
<use xlink:href="#glyph-0-2" x="379.527344" y="592.554688"/>
<use xlink:href="#glyph-0-3" x="383.972656" y="592.554688"/>
<use xlink:href="#glyph-0-4" x="392.871094" y="592.554688"/>
<use xlink:href="#glyph-0-5" x="398.199219" y="592.554688"/>
<use xlink:href="#glyph-0-6" x="407.097656" y="592.554688"/>
<use xlink:href="#glyph-0-7" x="410.652344" y="592.554688"/>
<use xlink:href="#glyph-0-4" x="415.097656" y="592.554688"/>
<use xlink:href="#glyph-0-3" x="420.425781" y="592.554688"/>
<use xlink:href="#glyph-0-4" x="429.324219" y="592.554688"/>
<use xlink:href="#glyph-0-8" x="434.652344" y="592.554688"/>
<use xlink:href="#glyph-0-1" x="442.652344" y="592.554688"/>
<use xlink:href="#glyph-0-9" x="447.097656" y="592.554688"/>
<use xlink:href="#glyph-0-10" x="455.996094" y="592.554688"/>
<use xlink:href="#glyph-0-6" x="464.894531" y="592.554688"/>
<use xlink:href="#glyph-0-7" x="468.449219" y="592.554688"/>
<use xlink:href="#glyph-0-11" x="472.894531" y="592.554688"/>
<use xlink:href="#glyph-0-12" x="480.894531" y="592.554688"/>
</g>
<path fill="none" stroke-width="2" stroke-linecap="butt" stroke-linejoin="miter" stroke="rgb(0%, 0%, 0%)" stroke-opacity="1" stroke-miterlimit="10" d="M 73 555 L 73 547 "/>
<g fill="rgb(0%, 0%, 0%)" fill-opacity="1">
<use xlink:href="#glyph-0-13" x="61.96875" y="573.1875"/>
<use xlink:href="#glyph-0-14" x="70.867188" y="573.1875"/>
<use xlink:href="#glyph-0-13" x="75.3125" y="573.1875"/>
</g>
<path fill="none" stroke-width="2" stroke-linecap="butt" stroke-linejoin="miter" stroke="rgb(0%, 0%, 0%)" stroke-opacity="1" stroke-miterlimit="10" d="M 249 555 L 249 547 "/>
<g fill="rgb(0%, 0%, 0%)" fill-opacity="1">
<use xlink:href="#glyph-0-15" x="237.96875" y="573.226562"/>
<use xlink:href="#glyph-0-14" x="246.867188" y="573.226562"/>
<use xlink:href="#glyph-0-16" x="251.3125" y="573.226562"/>
</g>
<path fill="none" stroke-width="2" stroke-linecap="butt" stroke-linejoin="miter" stroke="rgb(0%, 0%, 0%)" stroke-opacity="1" stroke-miterlimit="10" d="M 425 555 L 425 547 "/>
<g fill="rgb(0%, 0%, 0%)" fill-opacity="1">
<use xlink:href="#glyph-0-16" x="413.960938" y="573.1875"/>
<use xlink:href="#glyph-0-14" x="422.859375" y="573.1875"/>
<use xlink:href="#glyph-0-13" x="427.304688" y="573.1875"/>
</g>
<path fill="none" stroke-width="2" stroke-linecap="butt" stroke-linejoin="miter" stroke="rgb(0%, 0%, 0%)" stroke-opacity="1" stroke-miterlimit="10" d="M 600 555 L 600 547 "/>
<g fill="rgb(0%, 0%, 0%)" fill-opacity="1">
<use xlink:href="#glyph-0-17" x="588.925781" y="573"/>
<use xlink:href="#glyph-0-14" x="597.824219" y="573"/>
<use xlink:href="#glyph-0-16" x="602.269531" y="573"/>
</g>
<path fill="none" stroke-width="2" stroke-linecap="butt" stroke-linejoin="miter" stroke="rgb(0%, 0%, 0%)" stroke-opacity="1" stroke-miterlimit="10" d="M 776 555 L 776 547 "/>
<g fill="rgb(0%, 0%, 0%)" fill-opacity="1">
<use xlink:href="#glyph-0-18" x="760.003906" y="573.1875"/>
<use xlink:href="#glyph-0-13" x="768.902344" y="573.1875"/>
<use xlink:href="#glyph-0-14" x="777.800781" y="573.1875"/>
<use xlink:href="#glyph-0-13" x="782.246094" y="573.1875"/>
</g>
<path fill="none" stroke-width="2" stroke-linecap="butt" stroke-linejoin="miter" stroke="rgb(0%, 0%, 0%)" stroke-opacity="1" stroke-miterlimit="10" d="M 108 555 L 108 551 "/>
<path fill="none" stroke-width="2" stroke-linecap="butt" stroke-linejoin="miter" stroke="rgb(0%, 0%, 0%)" stroke-opacity="1" stroke-miterlimit="10" d="M 143 555 L 143 551 "/>
<path fill="none" stroke-width="2" stroke-linecap="butt" stroke-linejoin="miter" stroke="rgb(0%, 0%, 0%)" stroke-opacity="1" stroke-miterlimit="10" d="M 178 555 L 178 551 "/>
<path fill="none" stroke-width="2" stroke-linecap="butt" stroke-linejoin="miter" stroke="rgb(0%, 0%, 0%)" stroke-opacity="1" stroke-miterlimit="10" d="M 214 555 L 214 551 "/>
<path fill="none" stroke-width="2" stroke-linecap="butt" stroke-linejoin="miter" stroke="rgb(0%, 0%, 0%)" stroke-opacity="1" stroke-miterlimit="10" d="M 284 555 L 284 551 "/>
<path fill="none" stroke-width="2" stroke-linecap="butt" stroke-linejoin="miter" stroke="rgb(0%, 0%, 0%)" stroke-opacity="1" stroke-miterlimit="10" d="M 319 555 L 319 551 "/>
<path fill="none" stroke-width="2" stroke-linecap="butt" stroke-linejoin="miter" stroke="rgb(0%, 0%, 0%)" stroke-opacity="1" stroke-miterlimit="10" d="M 354 555 L 354 551 "/>
<path fill="none" stroke-width="2" stroke-linecap="butt" stroke-linejoin="miter" stroke="rgb(0%, 0%, 0%)" stroke-opacity="1" stroke-miterlimit="10" d="M 389 555 L 389 551 "/>
<path fill="none" stroke-width="2" stroke-linecap="butt" stroke-linejoin="miter" stroke="rgb(0%, 0%, 0%)" stroke-opacity="1" stroke-miterlimit="10" d="M 460 555 L 460 551 "/>
<path fill="none" stroke-width="2" stroke-linecap="butt" stroke-linejoin="miter" stroke="rgb(0%, 0%, 0%)" stroke-opacity="1" stroke-miterlimit="10" d="M 495 555 L 495 551 "/>
<path fill="none" stroke-width="2" stroke-linecap="butt" stroke-linejoin="miter" stroke="rgb(0%, 0%, 0%)" stroke-opacity="1" stroke-miterlimit="10" d="M 530 555 L 530 551 "/>
<path fill="none" stroke-width="2" stroke-linecap="butt" stroke-linejoin="miter" stroke="rgb(0%, 0%, 0%)" stroke-opacity="1" stroke-miterlimit="10" d="M 565 555 L 565 551 "/>
<path fill="none" stroke-width="2" stroke-linecap="butt" stroke-linejoin="miter" stroke="rgb(0%, 0%, 0%)" stroke-opacity="1" stroke-miterlimit="10" d="M 635 555 L 635 551 "/>
<path fill="none" stroke-width="2" stroke-linecap="butt" stroke-linejoin="miter" stroke="rgb(0%, 0%, 0%)" stroke-opacity="1" stroke-miterlimit="10" d="M 671 555 L 671 551 "/>
<path fill="none" stroke-width="2" stroke-linecap="butt" stroke-linejoin="miter" stroke="rgb(0%, 0%, 0%)" stroke-opacity="1" stroke-miterlimit="10" d="M 706 555 L 706 551 "/>
<path fill="none" stroke-width="2" stroke-linecap="butt" stroke-linejoin="miter" stroke="rgb(0%, 0%, 0%)" stroke-opacity="1" stroke-miterlimit="10" d="M 741 555 L 741 551 "/>
<path fill="none" stroke-width="2" stroke-linecap="butt" stroke-linejoin="miter" stroke="rgb(0%, 0%, 0%)" stroke-opacity="1" stroke-miterlimit="10" d="M 73 554 L 73 23 "/>
<g fill="rgb(0%, 0%, 0%)" fill-opacity="1">
<use xlink:href="#glyph-1-0" x="19" y="349.589844"/>
<use xlink:href="#glyph-1-1" x="19" y="338.917969"/>
<use xlink:href="#glyph-1-2" x="19" y="334.472656"/>
<use xlink:href="#glyph-1-3" x="19" y="330.027344"/>
<use xlink:href="#glyph-1-4" x="19" y="321.128906"/>
<use xlink:href="#glyph-1-5" x="19" y="315.800781"/>
<use xlink:href="#glyph-1-6" x="19" y="306.902344"/>
<use xlink:href="#glyph-1-7" x="19" y="303.347656"/>
<use xlink:href="#glyph-1-4" x="19" y="298.902344"/>
<use xlink:href="#glyph-1-3" x="19" y="293.574219"/>
<use xlink:href="#glyph-1-4" x="19" y="284.675781"/>
<use xlink:href="#glyph-1-8" x="19" y="279.347656"/>
<use xlink:href="#glyph-1-1" x="19" y="271.347656"/>
<use xlink:href="#glyph-1-9" x="19" y="266.902344"/>
<use xlink:href="#glyph-1-10" x="19" y="258.003906"/>
<use xlink:href="#glyph-1-6" x="19" y="249.105469"/>
<use xlink:href="#glyph-1-7" x="19" y="245.550781"/>
<use xlink:href="#glyph-1-11" x="19" y="241.105469"/>
<use xlink:href="#glyph-1-12" x="19" y="233.105469"/>
</g>
<path fill="none" stroke-width="2" stroke-linecap="butt" stroke-linejoin="miter" stroke="rgb(0%, 0%, 0%)" stroke-opacity="1" stroke-miterlimit="10" d="M 73 555 L 81 555 "/>
<g fill="rgb(0%, 0%, 0%)" fill-opacity="1">
<use xlink:href="#glyph-0-13" x="57.78125" y="560.441406"/>
</g>
<path fill="none" stroke-width="2" stroke-linecap="butt" stroke-linejoin="miter" stroke="rgb(0%, 0%, 0%)" stroke-opacity="1" stroke-miterlimit="10" d="M 73 422 L 81 422 "/>
<g fill="rgb(0%, 0%, 0%)" fill-opacity="1">
<use xlink:href="#glyph-0-15" x="39.984375" y="427.460938"/>
<use xlink:href="#glyph-0-16" x="48.882812" y="427.460938"/>
<use xlink:href="#glyph-0-13" x="57.78125" y="427.460938"/>
</g>
<path fill="none" stroke-width="2" stroke-linecap="butt" stroke-linejoin="miter" stroke="rgb(0%, 0%, 0%)" stroke-opacity="1" stroke-miterlimit="10" d="M 73 289 L 81 289 "/>
<g fill="rgb(0%, 0%, 0%)" fill-opacity="1">
<use xlink:href="#glyph-0-16" x="39.984375" y="294.441406"/>
<use xlink:href="#glyph-0-13" x="48.882812" y="294.441406"/>
<use xlink:href="#glyph-0-13" x="57.78125" y="294.441406"/>
</g>
<path fill="none" stroke-width="2" stroke-linecap="butt" stroke-linejoin="miter" stroke="rgb(0%, 0%, 0%)" stroke-opacity="1" stroke-miterlimit="10" d="M 73 157 L 81 157 "/>
<g fill="rgb(0%, 0%, 0%)" fill-opacity="1">
<use xlink:href="#glyph-0-17" x="39.984375" y="162.441406"/>
<use xlink:href="#glyph-0-16" x="48.882812" y="162.441406"/>
<use xlink:href="#glyph-0-13" x="57.78125" y="162.441406"/>
</g>
<path fill="none" stroke-width="2" stroke-linecap="butt" stroke-linejoin="miter" stroke="rgb(0%, 0%, 0%)" stroke-opacity="1" stroke-miterlimit="10" d="M 73 24 L 81 24 "/>
<g fill="rgb(0%, 0%, 0%)" fill-opacity="1">
<use xlink:href="#glyph-0-18" x="31.085938" y="29.441406"/>
<use xlink:href="#glyph-0-13" x="39.984375" y="29.441406"/>
<use xlink:href="#glyph-0-13" x="48.882812" y="29.441406"/>
<use xlink:href="#glyph-0-13" x="57.78125" y="29.441406"/>
</g>
<path fill="none" stroke-width="2" stroke-linecap="butt" stroke-linejoin="miter" stroke="rgb(0%, 0%, 0%)" stroke-opacity="1" stroke-miterlimit="10" d="M 73 528 L 77 528 "/>
<path fill="none" stroke-width="2" stroke-linecap="butt" stroke-linejoin="miter" stroke="rgb(0%, 0%, 0%)" stroke-opacity="1" stroke-miterlimit="10" d="M 73 502 L 77 502 "/>
<path fill="none" stroke-width="2" stroke-linecap="butt" stroke-linejoin="miter" stroke="rgb(0%, 0%, 0%)" stroke-opacity="1" stroke-miterlimit="10" d="M 73 475 L 77 475 "/>
<path fill="none" stroke-width="2" stroke-linecap="butt" stroke-linejoin="miter" stroke="rgb(0%, 0%, 0%)" stroke-opacity="1" stroke-miterlimit="10" d="M 73 449 L 77 449 "/>
<path fill="none" stroke-width="2" stroke-linecap="butt" stroke-linejoin="miter" stroke="rgb(0%, 0%, 0%)" stroke-opacity="1" stroke-miterlimit="10" d="M 73 396 L 77 396 "/>
<path fill="none" stroke-width="2" stroke-linecap="butt" stroke-linejoin="miter" stroke="rgb(0%, 0%, 0%)" stroke-opacity="1" stroke-miterlimit="10" d="M 73 369 L 77 369 "/>
<path fill="none" stroke-width="2" stroke-linecap="butt" stroke-linejoin="miter" stroke="rgb(0%, 0%, 0%)" stroke-opacity="1" stroke-miterlimit="10" d="M 73 343 L 77 343 "/>
<path fill="none" stroke-width="2" stroke-linecap="butt" stroke-linejoin="miter" stroke="rgb(0%, 0%, 0%)" stroke-opacity="1" stroke-miterlimit="10" d="M 73 316 L 77 316 "/>
<path fill="none" stroke-width="2" stroke-linecap="butt" stroke-linejoin="miter" stroke="rgb(0%, 0%, 0%)" stroke-opacity="1" stroke-miterlimit="10" d="M 73 263 L 77 263 "/>
<path fill="none" stroke-width="2" stroke-linecap="butt" stroke-linejoin="miter" stroke="rgb(0%, 0%, 0%)" stroke-opacity="1" stroke-miterlimit="10" d="M 73 236 L 77 236 "/>
<path fill="none" stroke-width="2" stroke-linecap="butt" stroke-linejoin="miter" stroke="rgb(0%, 0%, 0%)" stroke-opacity="1" stroke-miterlimit="10" d="M 73 210 L 77 210 "/>
<path fill="none" stroke-width="2" stroke-linecap="butt" stroke-linejoin="miter" stroke="rgb(0%, 0%, 0%)" stroke-opacity="1" stroke-miterlimit="10" d="M 73 183 L 77 183 "/>
<path fill="none" stroke-width="2" stroke-linecap="butt" stroke-linejoin="miter" stroke="rgb(0%, 0%, 0%)" stroke-opacity="1" stroke-miterlimit="10" d="M 73 130 L 77 130 "/>
<path fill="none" stroke-width="2" stroke-linecap="butt" stroke-linejoin="miter" stroke="rgb(0%, 0%, 0%)" stroke-opacity="1" stroke-miterlimit="10" d="M 73 104 L 77 104 "/>
<path fill="none" stroke-width="2" stroke-linecap="butt" stroke-linejoin="miter" stroke="rgb(0%, 0%, 0%)" stroke-opacity="1" stroke-miterlimit="10" d="M 73 77 L 77 77 "/>
<path fill="none" stroke-width="2" stroke-linecap="butt" stroke-linejoin="miter" stroke="rgb(0%, 0%, 0%)" stroke-opacity="1" stroke-miterlimit="10" d="M 73 51 L 77 51 "/>
<path fill="none" stroke-width="2" stroke-linecap="butt" stroke-linejoin="miter" stroke="rgb(0%, 0%, 0%)" stroke-opacity="1" stroke-miterlimit="10" d="M 74 24 L 777 24 "/>
<path fill="none" stroke-width="2" stroke-linecap="butt" stroke-linejoin="miter" stroke="rgb(0%, 0%, 0%)" stroke-opacity="1" stroke-miterlimit="10" d="M 73 32 L 73 24 "/>
<path fill="none" stroke-width="2" stroke-linecap="butt" stroke-linejoin="miter" stroke="rgb(0%, 0%, 0%)" stroke-opacity="1" stroke-miterlimit="10" d="M 249 32 L 249 24 "/>
<path fill="none" stroke-width="2" stroke-linecap="butt" stroke-linejoin="miter" stroke="rgb(0%, 0%, 0%)" stroke-opacity="1" stroke-miterlimit="10" d="M 425 32 L 425 24 "/>
<path fill="none" stroke-width="2" stroke-linecap="butt" stroke-linejoin="miter" stroke="rgb(0%, 0%, 0%)" stroke-opacity="1" stroke-miterlimit="10" d="M 600 32 L 600 24 "/>
<path fill="none" stroke-width="2" stroke-linecap="butt" stroke-linejoin="miter" stroke="rgb(0%, 0%, 0%)" stroke-opacity="1" stroke-miterlimit="10" d="M 776 32 L 776 24 "/>
<path fill="none" stroke-width="2" stroke-linecap="butt" stroke-linejoin="miter" stroke="rgb(0%, 0%, 0%)" stroke-opacity="1" stroke-miterlimit="10" d="M 108 28 L 108 24 "/>
<path fill="none" stroke-width="2" stroke-linecap="butt" stroke-linejoin="miter" stroke="rgb(0%, 0%, 0%)" stroke-opacity="1" stroke-miterlimit="10" d="M 143 28 L 143 24 "/>
<path fill="none" stroke-width="2" stroke-linecap="butt" stroke-linejoin="miter" stroke="rgb(0%, 0%, 0%)" stroke-opacity="1" stroke-miterlimit="10" d="M 178 28 L 178 24 "/>
<path fill="none" stroke-width="2" stroke-linecap="butt" stroke-linejoin="miter" stroke="rgb(0%, 0%, 0%)" stroke-opacity="1" stroke-miterlimit="10" d="M 214 28 L 214 24 "/>
<path fill="none" stroke-width="2" stroke-linecap="butt" stroke-linejoin="miter" stroke="rgb(0%, 0%, 0%)" stroke-opacity="1" stroke-miterlimit="10" d="M 284 28 L 284 24 "/>
<path fill="none" stroke-width="2" stroke-linecap="butt" stroke-linejoin="miter" stroke="rgb(0%, 0%, 0%)" stroke-opacity="1" stroke-miterlimit="10" d="M 319 28 L 319 24 "/>
<path fill="none" stroke-width="2" stroke-linecap="butt" stroke-linejoin="miter" stroke="rgb(0%, 0%, 0%)" stroke-opacity="1" stroke-miterlimit="10" d="M 354 28 L 354 24 "/>
<path fill="none" stroke-width="2" stroke-linecap="butt" stroke-linejoin="miter" stroke="rgb(0%, 0%, 0%)" stroke-opacity="1" stroke-miterlimit="10" d="M 389 28 L 389 24 "/>
<path fill="none" stroke-width="2" stroke-linecap="butt" stroke-linejoin="miter" stroke="rgb(0%, 0%, 0%)" stroke-opacity="1" stroke-miterlimit="10" d="M 460 28 L 460 24 "/>
<path fill="none" stroke-width="2" stroke-linecap="butt" stroke-linejoin="miter" stroke="rgb(0%, 0%, 0%)" stroke-opacity="1" stroke-miterlimit="10" d="M 495 28 L 495 24 "/>
<path fill="none" stroke-width="2" stroke-linecap="butt" stroke-linejoin="miter" stroke="rgb(0%, 0%, 0%)" stroke-opacity="1" stroke-miterlimit="10" d="M 530 28 L 530 24 "/>
<path fill="none" stroke-width="2" stroke-linecap="butt" stroke-linejoin="miter" stroke="rgb(0%, 0%, 0%)" stroke-opacity="1" stroke-miterlimit="10" d="M 565 28 L 565 24 "/>
<path fill="none" stroke-width="2" stroke-linecap="butt" stroke-linejoin="miter" stroke="rgb(0%, 0%, 0%)" stroke-opacity="1" stroke-miterlimit="10" d="M 635 28 L 635 24 "/>
<path fill="none" stroke-width="2" stroke-linecap="butt" stroke-linejoin="miter" stroke="rgb(0%, 0%, 0%)" stroke-opacity="1" stroke-miterlimit="10" d="M 671 28 L 671 24 "/>
<path fill="none" stroke-width="2" stroke-linecap="butt" stroke-linejoin="miter" stroke="rgb(0%, 0%, 0%)" stroke-opacity="1" stroke-miterlimit="10" d="M 706 28 L 706 24 "/>
<path fill="none" stroke-width="2" stroke-linecap="butt" stroke-linejoin="miter" stroke="rgb(0%, 0%, 0%)" stroke-opacity="1" stroke-miterlimit="10" d="M 741 28 L 741 24 "/>
<path fill="none" stroke-width="2" stroke-linecap="butt" stroke-linejoin="miter" stroke="rgb(0%, 0%, 0%)" stroke-opacity="1" stroke-miterlimit="10" d="M 776 554 L 776 25 "/>
<path fill="none" stroke-width="2" stroke-linecap="butt" stroke-linejoin="miter" stroke="rgb(0%, 0%, 0%)" stroke-opacity="1" stroke-miterlimit="10" d="M 768 555 L 776 555 "/>
<path fill="none" stroke-width="2" stroke-linecap="butt" stroke-linejoin="miter" stroke="rgb(0%, 0%, 0%)" stroke-opacity="1" stroke-miterlimit="10" d="M 768 422 L 776 422 "/>
<path fill="none" stroke-width="2" stroke-linecap="butt" stroke-linejoin="miter" stroke="rgb(0%, 0%, 0%)" stroke-opacity="1" stroke-miterlimit="10" d="M 768 289 L 776 289 "/>
<path fill="none" stroke-width="2" stroke-linecap="butt" stroke-linejoin="miter" stroke="rgb(0%, 0%, 0%)" stroke-opacity="1" stroke-miterlimit="10" d="M 768 157 L 776 157 "/>
<path fill="none" stroke-width="2" stroke-linecap="butt" stroke-linejoin="miter" stroke="rgb(0%, 0%, 0%)" stroke-opacity="1" stroke-miterlimit="10" d="M 768 24 L 776 24 "/>
<path fill="none" stroke-width="2" stroke-linecap="butt" stroke-linejoin="miter" stroke="rgb(0%, 0%, 0%)" stroke-opacity="1" stroke-miterlimit="10" d="M 772 528 L 776 528 "/>
<path fill="none" stroke-width="2" stroke-linecap="butt" stroke-linejoin="miter" stroke="rgb(0%, 0%, 0%)" stroke-opacity="1" stroke-miterlimit="10" d="M 772 502 L 776 502 "/>
<path fill="none" stroke-width="2" stroke-linecap="butt" stroke-linejoin="miter" stroke="rgb(0%, 0%, 0%)" stroke-opacity="1" stroke-miterlimit="10" d="M 772 475 L 776 475 "/>
<path fill="none" stroke-width="2" stroke-linecap="butt" stroke-linejoin="miter" stroke="rgb(0%, 0%, 0%)" stroke-opacity="1" stroke-miterlimit="10" d="M 772 449 L 776 449 "/>
<path fill="none" stroke-width="2" stroke-linecap="butt" stroke-linejoin="miter" stroke="rgb(0%, 0%, 0%)" stroke-opacity="1" stroke-miterlimit="10" d="M 772 396 L 776 396 "/>
<path fill="none" stroke-width="2" stroke-linecap="butt" stroke-linejoin="miter" stroke="rgb(0%, 0%, 0%)" stroke-opacity="1" stroke-miterlimit="10" d="M 772 369 L 776 369 "/>
<path fill="none" stroke-width="2" stroke-linecap="butt" stroke-linejoin="miter" stroke="rgb(0%, 0%, 0%)" stroke-opacity="1" stroke-miterlimit="10" d="M 772 343 L 776 343 "/>
<path fill="none" stroke-width="2" stroke-linecap="butt" stroke-linejoin="miter" stroke="rgb(0%, 0%, 0%)" stroke-opacity="1" stroke-miterlimit="10" d="M 772 316 L 776 316 "/>
<path fill="none" stroke-width="2" stroke-linecap="butt" stroke-linejoin="miter" stroke="rgb(0%, 0%, 0%)" stroke-opacity="1" stroke-miterlimit="10" d="M 772 263 L 776 263 "/>
<path fill="none" stroke-width="2" stroke-linecap="butt" stroke-linejoin="miter" stroke="rgb(0%, 0%, 0%)" stroke-opacity="1" stroke-miterlimit="10" d="M 772 236 L 776 236 "/>
<path fill="none" stroke-width="2" stroke-linecap="butt" stroke-linejoin="miter" stroke="rgb(0%, 0%, 0%)" stroke-opacity="1" stroke-miterlimit="10" d="M 772 210 L 776 210 "/>
<path fill="none" stroke-width="2" stroke-linecap="butt" stroke-linejoin="miter" stroke="rgb(0%, 0%, 0%)" stroke-opacity="1" stroke-miterlimit="10" d="M 772 183 L 776 183 "/>
<path fill="none" stroke-width="2" stroke-linecap="butt" stroke-linejoin="miter" stroke="rgb(0%, 0%, 0%)" stroke-opacity="1" stroke-miterlimit="10" d="M 772 130 L 776 130 "/>
<path fill="none" stroke-width="2" stroke-linecap="butt" stroke-linejoin="miter" stroke="rgb(0%, 0%, 0%)" stroke-opacity="1" stroke-miterlimit="10" d="M 772 104 L 776 104 "/>
<path fill="none" stroke-width="2" stroke-linecap="butt" stroke-linejoin="miter" stroke="rgb(0%, 0%, 0%)" stroke-opacity="1" stroke-miterlimit="10" d="M 772 77 L 776 77 "/>
<path fill="none" stroke-width="2" stroke-linecap="butt" stroke-linejoin="miter" stroke="rgb(0%, 0%, 0%)" stroke-opacity="1" stroke-miterlimit="10" d="M 772 51 L 776 51 "/>
</svg>
