<?xml version="1.0" encoding="UTF-8"?>
<svg xmlns="http://www.w3.org/2000/svg" xmlns:xlink="http://www.w3.org/1999/xlink" width="675" height="500" viewBox="0 0 675 500">
<defs>
<g>
<g id="glyph-0-0">
<path d="M 14.34375 0.410156 L 14.34375 2.675781 L 7.453125 6.796875 L 14.34375 10.917969 L 14.34375 13.195312 L 5.78125 7.773438 L 0 7.773438 L 0 5.828125 L 5.78125 5.828125 Z M 14.34375 0.410156 "/>
</g>
<g id="glyph-0-1">
<path d="M 0 0.625 C 1.203125 0.691406 2.253906 0.9375 3.144531 1.371094 C 4.035156 1.804688 4.847656 2.648438 5.578125 3.90625 L 6.660156 5.78125 C 7.148438 6.621094 7.566406 7.210938 7.910156 7.546875 C 8.449219 8.082031 9.070312 8.351562 9.765625 8.351562 C 10.578125 8.351562 11.226562 8.105469 11.703125 7.617188 C 12.183594 7.128906 12.421875 6.476562 12.421875 5.664062 C 12.421875 4.460938 11.964844 3.625 11.054688 3.164062 C 10.566406 2.917969 9.890625 2.78125 9.023438 2.753906 L 9.023438 0.964844 C 10.242188 0.984375 11.234375 1.210938 12 1.640625 C 13.355469 2.402344 14.03125 3.746094 14.03125 5.671875 C 14.03125 7.273438 13.601562 8.445312 12.734375 9.183594 C 11.867188 9.921875 10.90625 10.292969 9.84375 10.292969 C 8.722656 10.292969 7.765625 9.898438 6.972656 9.109375 C 6.511719 8.65625 5.949219 7.839844 5.292969 6.660156 L 4.550781 5.320312 C 4.199219 4.683594 3.863281 4.183594 3.546875 3.820312 C 2.980469 3.167969 2.351562 2.757812 1.660156 2.585938 L 1.660156 10.226562 L 0 10.226562 Z M 0 0.625 "/>
</g>
<g id="glyph-1-0">
<path d="M 5.410156 -13.984375 C 7.21875 -13.984375 8.527344 -13.238281 9.335938 -11.75 C 9.960938 -10.597656 10.273438 -9.015625 10.273438 -7.011719 C 10.273438 -5.109375 9.992188 -3.539062 9.421875 -2.296875 C 8.601562 -0.511719 7.261719 0.382812 5.398438 0.382812 C 3.71875 0.382812 2.46875 -0.347656 1.648438 -1.804688 C 0.964844 -3.023438 0.625 -4.65625 0.625 -6.710938 C 0.625 -8.296875 0.828125 -9.660156 1.242188 -10.800781 C 2.007812 -12.921875 3.398438 -13.984375 5.410156 -13.984375 Z M 5.390625 -1.21875 C 6.300781 -1.21875 7.027344 -1.625 7.570312 -2.429688 C 8.109375 -3.238281 8.378906 -4.742188 8.378906 -6.945312 C 8.378906 -8.53125 8.183594 -9.839844 7.792969 -10.863281 C 7.402344 -11.890625 6.644531 -12.402344 5.515625 -12.402344 C 4.480469 -12.402344 3.726562 -11.914062 3.246094 -10.941406 C 2.769531 -9.96875 2.53125 -8.535156 2.53125 -6.640625 C 2.53125 -5.214844 2.683594 -4.070312 2.988281 -3.203125 C 3.457031 -1.882812 4.257812 -1.21875 5.390625 -1.21875 Z M 5.390625 -1.21875 "/>
</g>
<g id="glyph-1-1">
<path d="M 2.46875 -3.5625 C 2.585938 -2.5625 3.054688 -1.867188 3.867188 -1.484375 C 4.285156 -1.289062 4.765625 -1.191406 5.3125 -1.191406 C 6.355469 -1.191406 7.125 -1.523438 7.625 -2.1875 C 8.128906 -2.851562 8.378906 -3.585938 8.378906 -4.394531 C 8.378906 -5.371094 8.082031 -6.125 7.484375 -6.660156 C 6.890625 -7.195312 6.175781 -7.460938 5.34375 -7.460938 C 4.738281 -7.460938 4.21875 -7.34375 3.785156 -7.109375 C 3.351562 -6.875 2.980469 -6.550781 2.675781 -6.132812 L 1.152344 -6.21875 L 2.21875 -13.75 L 9.484375 -13.75 L 9.484375 -12.050781 L 3.535156 -12.050781 L 2.9375 -8.164062 C 3.265625 -8.410156 3.574219 -8.597656 3.867188 -8.71875 C 4.386719 -8.933594 4.992188 -9.042969 5.671875 -9.042969 C 6.957031 -9.042969 8.042969 -8.628906 8.9375 -7.804688 C 9.828125 -6.976562 10.273438 -5.929688 10.273438 -4.65625 C 10.273438 -3.335938 9.863281 -2.171875 9.046875 -1.164062 C 8.230469 -0.152344 6.925781 0.351562 5.136719 0.351562 C 3.996094 0.351562 2.988281 0.03125 2.113281 -0.609375 C 1.238281 -1.25 0.75 -2.234375 0.644531 -3.5625 Z M 2.46875 -3.5625 "/>
</g>
<g id="glyph-1-2">
<path d="M 1.914062 -9.902344 L 1.914062 -11.25 C 3.183594 -11.375 4.070312 -11.582031 4.570312 -11.871094 C 5.070312 -12.160156 5.445312 -12.84375 5.695312 -13.925781 L 7.078125 -13.925781 L 7.078125 0 L 5.203125 0 L 5.203125 -9.902344 Z M 1.914062 -9.902344 "/>
</g>
<g id="glyph-1-3">
<path d="M 0.625 0 C 0.691406 -1.203125 0.9375 -2.253906 1.371094 -3.144531 C 1.804688 -4.035156 2.648438 -4.847656 3.90625 -5.578125 L 5.78125 -6.660156 C 6.621094 -7.148438 7.210938 -7.566406 7.546875 -7.910156 C 8.082031 -8.449219 8.351562 -9.070312 8.351562 -9.765625 C 8.351562 -10.578125 8.105469 -11.226562 7.617188 -11.703125 C 7.128906 -12.183594 6.476562 -12.421875 5.664062 -12.421875 C 4.460938 -12.421875 3.625 -11.964844 3.164062 -11.054688 C 2.917969 -10.566406 2.78125 -9.890625 2.753906 -9.023438 L 0.96875 -9.023438 C 0.988281 -10.242188 1.210938 -11.234375 1.640625 -12 C 2.402344 -13.355469 3.746094 -14.03125 5.671875 -14.03125 C 7.273438 -14.03125 8.445312 -13.601562 9.183594 -12.734375 C 9.921875 -11.867188 10.292969 -10.90625 10.292969 -9.84375 C 10.292969 -8.722656 9.898438 -7.765625 9.109375 -6.972656 C 8.65625 -6.511719 7.839844 -5.949219 6.660156 -5.292969 L 5.320312 -4.550781 C 4.683594 -4.199219 4.183594 -3.863281 3.820312 -3.546875 C 3.167969 -2.980469 2.757812 -2.351562 2.585938 -1.660156 L 10.226562 -1.660156 L 10.226562 0 Z M 0.625 0 "/>
</g>
<g id="glyph-1-4">
<path d="M 1.710938 -2.128906 L 3.75 -2.128906 L 3.75 0 L 1.710938 0 Z M 1.710938 -2.128906 "/>
</g>
<g id="glyph-1-5">
<path d="M 10.460938 -13.75 L 10.460938 -12.21875 C 10.011719 -11.78125 9.414062 -11.023438 8.667969 -9.941406 C 7.921875 -8.859375 7.261719 -7.695312 6.6875 -6.445312 C 6.121094 -5.226562 5.695312 -4.117188 5.398438 -3.117188 C 5.210938 -2.472656 4.96875 -1.433594 4.667969 0 L 2.726562 0 C 3.167969 -2.667969 4.144531 -5.324219 5.65625 -7.96875 C 6.546875 -9.519531 7.484375 -10.855469 8.46875 -11.984375 L 0.734375 -11.984375 L 0.734375 -13.75 Z M 10.460938 -13.75 "/>
</g>
<g id="glyph-1-6">
<path d="M 2.753906 0 L 0.410156 0 L 5.546875 -7.351562 L 0.734375 -14.34375 L 3.164062 -14.34375 L 6.828125 -8.859375 L 10.460938 -14.34375 L 12.773438 -14.34375 L 7.960938 -7.351562 L 13.007812 0 L 10.59375 0 L 6.726562 -5.898438 Z M 2.753906 0 "/>
</g>
<g id="glyph-1-7">
<path d="M 7.03125 -1.660156 C 7.6875 -1.660156 8.230469 -1.726562 8.652344 -1.867188 C 9.40625 -2.121094 10.027344 -2.609375 10.507812 -3.328125 C 10.890625 -3.910156 11.167969 -4.652344 11.335938 -5.554688 C 11.433594 -6.097656 11.484375 -6.597656 11.484375 -7.0625 C 11.484375 -8.839844 11.132812 -10.21875 10.425781 -11.203125 C 9.71875 -12.183594 8.582031 -12.675781 7.011719 -12.675781 L 3.5625 -12.675781 L 3.5625 -1.660156 Z M 1.609375 -14.34375 L 7.421875 -14.34375 C 9.394531 -14.34375 10.925781 -13.644531 12.011719 -12.246094 C 12.980469 -10.984375 13.46875 -9.367188 13.46875 -7.390625 C 13.46875 -5.867188 13.179688 -4.492188 12.609375 -3.261719 C 11.597656 -1.085938 9.863281 0 7.402344 0 L 1.609375 0 Z M 1.609375 -14.34375 "/>
</g>
<g id="glyph-1-8">
<path d="M 5.4375 -1.132812 C 6.605469 -1.132812 7.402344 -1.574219 7.835938 -2.457031 C 8.269531 -3.339844 8.484375 -4.320312 8.484375 -5.398438 C 8.484375 -6.375 8.328125 -7.171875 8.015625 -7.78125 C 7.523438 -8.746094 6.671875 -9.226562 5.460938 -9.226562 C 4.386719 -9.226562 3.601562 -8.820312 3.117188 -8 C 2.628906 -7.179688 2.382812 -6.1875 2.382812 -5.03125 C 2.382812 -3.917969 2.625 -2.988281 3.117188 -2.246094 C 3.605469 -1.503906 4.378906 -1.132812 5.4375 -1.132812 Z M 5.507812 -10.761719 C 6.855469 -10.761719 7.996094 -10.3125 8.925781 -9.414062 C 9.855469 -8.515625 10.320312 -7.195312 10.320312 -5.449219 C 10.320312 -3.761719 9.914062 -2.371094 9.09375 -1.269531 C 8.273438 -0.167969 7 0.382812 5.273438 0.382812 C 3.835938 0.382812 2.691406 -0.105469 1.84375 -1.078125 C 1 -2.050781 0.578125 -3.359375 0.578125 -5 C 0.578125 -6.757812 1.023438 -8.15625 1.914062 -9.199219 C 2.804688 -10.242188 4.003906 -10.761719 5.507812 -10.761719 Z M 5.507812 -10.761719 "/>
</g>
<g id="glyph-1-9">
<path d="M 3.046875 -10.460938 L 3.046875 -3.515625 C 3.046875 -2.980469 3.132812 -2.546875 3.300781 -2.207031 C 3.613281 -1.582031 4.195312 -1.269531 5.046875 -1.269531 C 6.273438 -1.269531 7.105469 -1.816406 7.546875 -2.910156 C 7.789062 -3.496094 7.910156 -4.300781 7.910156 -5.320312 L 7.910156 -10.460938 L 9.667969 -10.460938 L 9.667969 0 L 8.007812 0 L 8.027344 -1.542969 C 7.800781 -1.144531 7.515625 -0.8125 7.179688 -0.539062 C 6.507812 0.0078125 5.695312 0.28125 4.734375 0.28125 C 3.246094 0.28125 2.230469 -0.214844 1.6875 -1.210938 C 1.394531 -1.746094 1.25 -2.457031 1.25 -3.351562 L 1.25 -10.460938 Z M 3.046875 -10.460938 "/>
</g>
<g id="glyph-1-10">
<path d="M 1.152344 -14.394531 L 2.859375 -14.394531 L 2.859375 -9.1875 C 3.246094 -9.691406 3.703125 -10.074219 4.238281 -10.335938 C 4.773438 -10.601562 5.351562 -10.734375 5.976562 -10.734375 C 7.277344 -10.734375 8.335938 -10.285156 9.144531 -9.390625 C 9.957031 -8.496094 10.359375 -7.175781 10.359375 -5.429688 C 10.359375 -3.777344 9.960938 -2.402344 9.160156 -1.308594 C 8.359375 -0.214844 7.25 0.332031 5.828125 0.332031 C 5.035156 0.332031 4.367188 0.140625 3.820312 -0.242188 C 3.492188 -0.472656 3.144531 -0.835938 2.773438 -1.335938 L 2.773438 0 L 1.152344 0 Z M 5.722656 -1.21875 C 6.671875 -1.21875 7.382812 -1.597656 7.855469 -2.351562 C 8.328125 -3.109375 8.5625 -4.105469 8.5625 -5.34375 C 8.5625 -6.441406 8.328125 -7.351562 7.855469 -8.078125 C 7.382812 -8.800781 6.6875 -9.160156 5.773438 -9.160156 C 4.972656 -9.160156 4.269531 -8.863281 3.667969 -8.273438 C 3.066406 -7.679688 2.765625 -6.703125 2.765625 -5.34375 C 2.765625 -4.359375 2.886719 -3.5625 3.132812 -2.949219 C 3.597656 -1.796875 4.460938 -1.21875 5.722656 -1.21875 Z M 5.722656 -1.21875 "/>
</g>
<g id="glyph-1-11">
<path d="M 1.335938 -14.34375 L 3.09375 -14.34375 L 3.09375 0 L 1.335938 0 Z M 1.335938 -14.34375 "/>
</g>
<g id="glyph-1-12">
<path d="M 5.644531 -10.695312 C 6.386719 -10.695312 7.105469 -10.519531 7.804688 -10.171875 C 8.5 -9.824219 9.03125 -9.371094 9.394531 -8.820312 C 9.746094 -8.292969 9.980469 -7.675781 10.097656 -6.972656 C 10.203125 -6.492188 10.253906 -5.722656 10.253906 -4.667969 L 2.585938 -4.667969 C 2.621094 -3.605469 2.871094 -2.753906 3.339844 -2.113281 C 3.808594 -1.472656 4.535156 -1.152344 5.515625 -1.152344 C 6.433594 -1.152344 7.167969 -1.453125 7.714844 -2.0625 C 8.027344 -2.414062 8.25 -2.820312 8.378906 -3.28125 L 10.109375 -3.28125 C 10.0625 -2.898438 9.910156 -2.46875 9.652344 -1.996094 C 9.394531 -1.523438 9.109375 -1.140625 8.789062 -0.839844 C 8.253906 -0.320312 7.59375 0.03125 6.804688 0.214844 C 6.382812 0.320312 5.90625 0.371094 5.371094 0.371094 C 4.070312 0.371094 2.964844 -0.101562 2.0625 -1.050781 C 1.15625 -1.996094 0.703125 -3.324219 0.703125 -5.03125 C 0.703125 -6.710938 1.160156 -8.074219 2.070312 -9.121094 C 2.980469 -10.167969 4.171875 -10.695312 5.644531 -10.695312 Z M 8.445312 -6.0625 C 8.375 -6.824219 8.210938 -7.433594 7.949219 -7.890625 C 7.46875 -8.738281 6.664062 -9.160156 5.539062 -9.160156 C 4.730469 -9.160156 4.054688 -8.867188 3.507812 -8.285156 C 2.960938 -7.703125 2.667969 -6.960938 2.636719 -6.0625 Z M 8.445312 -6.0625 "/>
</g>
<g id="glyph-1-13">
<rect x="0" y="0" width="0" height="0" mask="url(#mask-0)"/>
</g>
<g id="glyph-1-14">
<path d="M 1.710938 -14.34375 L 8.164062 -14.34375 C 9.441406 -14.34375 10.46875 -13.984375 11.25 -13.265625 C 12.03125 -12.546875 12.421875 -11.535156 12.421875 -10.234375 C 12.421875 -9.113281 12.074219 -8.140625 11.375 -7.308594 C 10.679688 -6.480469 9.609375 -6.0625 8.164062 -6.0625 L 3.652344 -6.0625 L 3.652344 0 L 1.710938 0 Z M 10.460938 -10.226562 C 10.460938 -11.28125 10.070312 -11.996094 9.289062 -12.375 C 8.859375 -12.574219 8.269531 -12.675781 7.519531 -12.675781 L 3.652344 -12.675781 L 3.652344 -7.703125 L 7.519531 -7.703125 C 8.390625 -7.703125 9.101562 -7.890625 9.644531 -8.261719 C 10.1875 -8.632812 10.460938 -9.289062 10.460938 -10.226562 Z M 10.460938 -10.226562 "/>
</g>
<g id="glyph-1-15">
<path d="M 1.640625 -13.378906 L 3.417969 -13.378906 L 3.417969 -10.460938 L 5.085938 -10.460938 L 5.085938 -9.023438 L 3.417969 -9.023438 L 3.417969 -2.195312 C 3.417969 -1.832031 3.542969 -1.589844 3.789062 -1.464844 C 3.925781 -1.394531 4.152344 -1.359375 4.472656 -1.359375 C 4.558594 -1.359375 4.648438 -1.359375 4.746094 -1.363281 C 4.84375 -1.367188 4.957031 -1.375 5.085938 -1.386719 L 5.085938 0 C 4.886719 0.0585938 4.675781 0.101562 4.457031 0.125 C 4.238281 0.152344 4.003906 0.164062 3.75 0.164062 C 2.929688 0.164062 2.375 -0.0429688 2.078125 -0.464844 C 1.785156 -0.882812 1.640625 -1.429688 1.640625 -2.101562 L 1.640625 -9.023438 L 0.226562 -9.023438 L 0.226562 -10.460938 L 1.640625 -10.460938 Z M 1.640625 -13.378906 "/>
</g>
<g id="glyph-2-0">
<path d="M -14.34375 -0.410156 L -14.34375 -2.675781 L -7.453125 -6.796875 L -14.347656 -10.917969 L -14.347656 -13.191406 L -5.78125 -7.773438 L 0 -7.773438 L 0 -5.828125 L -5.78125 -5.828125 Z M -14.34375 -0.410156 "/>
</g>
<g id="glyph-2-1">
<path d="M -9.902344 -1.914062 L -11.25 -1.914062 C -11.375 -3.183594 -11.582031 -4.070312 -11.871094 -4.570312 C -12.160156 -5.070312 -12.84375 -5.445312 -13.925781 -5.691406 L -13.925781 -7.078125 L 0 -7.078125 L 0 -5.203125 L -9.902344 -5.203125 Z M -9.902344 -1.914062 "/>
</g>
</g>
<image id="source-22" x="0" y="0" width="0" height="0"/>
<mask id="mask-0">
<use xlink:href="#source-22"/>
</mask>
</defs>
<rect x="-67.5" y="-50" width="810" height="600" fill="rgb(100%, 100%, 100%)" fill-opacity="1"/>
<path fill="none" stroke-width="3" stroke-linecap="butt" stroke-linejoin="round" stroke="rgb(27.1%, 52.2%, 53.3%)" stroke-opacity="1" stroke-miterlimit="10" d="M 114.816406 424.816406 L 123.746094 424.816406 L 128.210938 424.808594 L 132.671875 424.796875 L 137.136719 424.773438 L 141.601562 424.742188 L 146.0625 424.695312 L 150.527344 424.636719 L 154.992188 424.558594 L 159.453125 424.464844 L 163.917969 424.347656 L 168.382812 424.207031 L 172.84375 424.042969 L 177.308594 423.847656 L 181.773438 423.625 L 186.238281 423.371094 L 190.699219 423.082031 L 195.164062 422.753906 L 199.628906 422.394531 L 204.089844 421.988281 L 208.554688 421.542969 L 213.019531 421.050781 L 217.480469 420.515625 L 221.945312 419.929688 L 226.410156 419.292969 L 230.871094 418.601562 L 235.335938 417.859375 L 239.800781 417.054688 L 244.261719 416.191406 L 248.726562 415.269531 L 253.191406 414.28125 L 257.65625 413.230469 L 262.117188 412.109375 L 266.582031 410.917969 L 271.046875 409.65625 L 275.507812 408.320312 L 279.972656 406.90625 L 284.4375 405.414062 L 288.898438 403.839844 L 293.363281 402.183594 L 297.828125 400.445312 L 302.289062 398.617188 L 306.753906 396.703125 L 311.21875 394.695312 L 315.683594 392.59375 L 320.144531 390.398438 L 324.609375 388.101562 L 329.074219 385.707031 L 333.535156 383.214844 L 338 380.613281 L 342.464844 377.90625 L 346.925781 375.09375 L 351.390625 372.167969 L 355.855469 369.132812 L 360.316406 365.980469 L 364.78125 362.714844 L 369.246094 359.328125 L 373.710938 355.820312 L 378.171875 352.1875 L 382.636719 348.433594 L 387.101562 344.550781 L 391.5625 340.535156 L 396.027344 336.390625 L 400.492188 332.113281 L 404.953125 327.699219 L 409.417969 323.148438 L 413.882812 318.457031 L 418.34375 313.625 L 422.808594 308.644531 L 427.273438 303.519531 L 431.738281 298.246094 L 436.199219 292.824219 L 440.664062 287.246094 L 445.128906 281.515625 L 449.589844 275.628906 L 454.054688 269.582031 L 458.519531 263.371094 L 462.980469 257 L 467.445312 250.460938 L 471.910156 243.757812 L 476.371094 236.882812 L 480.835938 229.835938 L 485.300781 222.613281 L 489.761719 215.214844 L 494.226562 207.640625 L 498.691406 199.886719 L 503.15625 191.949219 L 507.617188 183.824219 L 512.082031 175.515625 L 516.546875 167.015625 L 521.007812 158.328125 L 525.472656 149.445312 L 529.9375 140.367188 L 534.398438 131.09375 L 538.863281 121.621094 L 543.328125 111.945312 L 547.789062 102.0625 L 552.253906 91.976562 L 556.71875 81.683594 L 561.183594 71.183594 "/>
<path fill="none" stroke-width="3" stroke-linecap="butt" stroke-linejoin="round" stroke="rgb(83.9%, 36.5%, 5.5%)" stroke-opacity="1" stroke-miterlimit="10" d="M 114.816406 71.183594 L 119.28125 81.683594 L 123.746094 91.976562 L 128.210938 102.0625 L 132.671875 111.945312 L 137.136719 121.621094 L 141.601562 131.09375 L 146.0625 140.367188 L 150.527344 149.445312 L 154.992188 158.328125 L 159.453125 167.015625 L 163.917969 175.515625 L 168.382812 183.824219 L 172.84375 191.949219 L 177.308594 199.886719 L 181.773438 207.640625 L 186.238281 215.214844 L 190.699219 222.613281 L 195.164062 229.835938 L 199.628906 236.882812 L 204.089844 243.757812 L 208.554688 250.460938 L 213.019531 257 L 217.480469 263.371094 L 221.945312 269.582031 L 226.410156 275.628906 L 230.871094 281.515625 L 235.335938 287.246094 L 239.800781 292.824219 L 244.261719 298.246094 L 248.726562 303.519531 L 253.191406 308.644531 L 257.65625 313.625 L 262.117188 318.457031 L 266.582031 323.148438 L 271.046875 327.699219 L 275.507812 332.113281 L 279.972656 336.390625 L 284.4375 340.535156 L 288.898438 344.550781 L 293.363281 348.433594 L 297.828125 352.1875 L 302.289062 355.820312 L 306.753906 359.328125 L 311.21875 362.714844 L 315.683594 365.980469 L 320.144531 369.132812 L 324.609375 372.167969 L 329.074219 375.09375 L 333.535156 377.90625 L 338 380.613281 L 342.464844 383.214844 L 346.925781 385.707031 L 351.390625 388.101562 L 355.855469 390.398438 L 360.316406 392.59375 L 364.78125 394.695312 L 369.246094 396.703125 L 373.710938 398.617188 L 378.171875 400.445312 L 382.636719 402.183594 L 387.101562 403.839844 L 391.5625 405.414062 L 396.027344 406.90625 L 400.492188 408.320312 L 404.953125 409.65625 L 409.417969 410.917969 L 413.882812 412.109375 L 418.34375 413.230469 L 422.808594 414.28125 L 427.273438 415.269531 L 431.738281 416.191406 L 436.199219 417.054688 L 440.664062 417.859375 L 445.128906 418.601562 L 449.589844 419.292969 L 454.054688 419.929688 L 458.519531 420.515625 L 462.980469 421.050781 L 467.445312 421.542969 L 471.910156 421.988281 L 476.371094 422.394531 L 480.835938 422.753906 L 485.300781 423.082031 L 489.761719 423.371094 L 494.226562 423.625 L 498.691406 423.847656 L 503.15625 424.042969 L 507.617188 424.207031 L 512.082031 424.347656 L 516.546875 424.464844 L 521.007812 424.558594 L 525.472656 424.636719 L 529.9375 424.695312 L 534.398438 424.742188 L 538.863281 424.773438 L 543.328125 424.796875 L 547.789062 424.808594 L 552.253906 424.816406 L 561.183594 424.816406 "/>
<path fill="none" stroke-width="2" stroke-linecap="butt" stroke-linejoin="miter" stroke="rgb(0%, 0%, 0%)" stroke-opacity="1" stroke-miterlimit="10" d="M 93 54 L 584 54 "/>
<path fill="none" stroke-width="2" stroke-linecap="butt" stroke-linejoin="miter" stroke="rgb(0%, 0%, 0%)" stroke-opacity="1" stroke-miterlimit="10" d="M 114 62 L 114 54 "/>
<path fill="none" stroke-width="2" stroke-linecap="butt" stroke-linejoin="miter" stroke="rgb(0%, 0%, 0%)" stroke-opacity="1" stroke-miterlimit="10" d="M 226 62 L 226 54 "/>
<path fill="none" stroke-width="2" stroke-linecap="butt" stroke-linejoin="miter" stroke="rgb(0%, 0%, 0%)" stroke-opacity="1" stroke-miterlimit="10" d="M 338 62 L 338 54 "/>
<path fill="none" stroke-width="2" stroke-linecap="butt" stroke-linejoin="miter" stroke="rgb(0%, 0%, 0%)" stroke-opacity="1" stroke-miterlimit="10" d="M 449 62 L 449 54 "/>
<path fill="none" stroke-width="2" stroke-linecap="butt" stroke-linejoin="miter" stroke="rgb(0%, 0%, 0%)" stroke-opacity="1" stroke-miterlimit="10" d="M 561 62 L 561 54 "/>
<path fill="none" stroke-width="2" stroke-linecap="butt" stroke-linejoin="miter" stroke="rgb(0%, 0%, 0%)" stroke-opacity="1" stroke-miterlimit="10" d="M 92 58 L 92 54 "/>
<path fill="none" stroke-width="2" stroke-linecap="butt" stroke-linejoin="miter" stroke="rgb(0%, 0%, 0%)" stroke-opacity="1" stroke-miterlimit="10" d="M 137 58 L 137 54 "/>
<path fill="none" stroke-width="2" stroke-linecap="butt" stroke-linejoin="miter" stroke="rgb(0%, 0%, 0%)" stroke-opacity="1" stroke-miterlimit="10" d="M 159 58 L 159 54 "/>
<path fill="none" stroke-width="2" stroke-linecap="butt" stroke-linejoin="miter" stroke="rgb(0%, 0%, 0%)" stroke-opacity="1" stroke-miterlimit="10" d="M 181 58 L 181 54 "/>
<path fill="none" stroke-width="2" stroke-linecap="butt" stroke-linejoin="miter" stroke="rgb(0%, 0%, 0%)" stroke-opacity="1" stroke-miterlimit="10" d="M 204 58 L 204 54 "/>
<path fill="none" stroke-width="2" stroke-linecap="butt" stroke-linejoin="miter" stroke="rgb(0%, 0%, 0%)" stroke-opacity="1" stroke-miterlimit="10" d="M 226 58 L 226 54 "/>
<path fill="none" stroke-width="2" stroke-linecap="butt" stroke-linejoin="miter" stroke="rgb(0%, 0%, 0%)" stroke-opacity="1" stroke-miterlimit="10" d="M 248 58 L 248 54 "/>
<path fill="none" stroke-width="2" stroke-linecap="butt" stroke-linejoin="miter" stroke="rgb(0%, 0%, 0%)" stroke-opacity="1" stroke-miterlimit="10" d="M 271 58 L 271 54 "/>
<path fill="none" stroke-width="2" stroke-linecap="butt" stroke-linejoin="miter" stroke="rgb(0%, 0%, 0%)" stroke-opacity="1" stroke-miterlimit="10" d="M 293 58 L 293 54 "/>
<path fill="none" stroke-width="2" stroke-linecap="butt" stroke-linejoin="miter" stroke="rgb(0%, 0%, 0%)" stroke-opacity="1" stroke-miterlimit="10" d="M 315 58 L 315 54 "/>
<path fill="none" stroke-width="2" stroke-linecap="butt" stroke-linejoin="miter" stroke="rgb(0%, 0%, 0%)" stroke-opacity="1" stroke-miterlimit="10" d="M 360 58 L 360 54 "/>
<path fill="none" stroke-width="2" stroke-linecap="butt" stroke-linejoin="miter" stroke="rgb(0%, 0%, 0%)" stroke-opacity="1" stroke-miterlimit="10" d="M 382 58 L 382 54 "/>
<path fill="none" stroke-width="2" stroke-linecap="butt" stroke-linejoin="miter" stroke="rgb(0%, 0%, 0%)" stroke-opacity="1" stroke-miterlimit="10" d="M 404 58 L 404 54 "/>
<path fill="none" stroke-width="2" stroke-linecap="butt" stroke-linejoin="miter" stroke="rgb(0%, 0%, 0%)" stroke-opacity="1" stroke-miterlimit="10" d="M 427 58 L 427 54 "/>
<path fill="none" stroke-width="2" stroke-linecap="butt" stroke-linejoin="miter" stroke="rgb(0%, 0%, 0%)" stroke-opacity="1" stroke-miterlimit="10" d="M 471 58 L 471 54 "/>
<path fill="none" stroke-width="2" stroke-linecap="butt" stroke-linejoin="miter" stroke="rgb(0%, 0%, 0%)" stroke-opacity="1" stroke-miterlimit="10" d="M 494 58 L 494 54 "/>
<path fill="none" stroke-width="2" stroke-linecap="butt" stroke-linejoin="miter" stroke="rgb(0%, 0%, 0%)" stroke-opacity="1" stroke-miterlimit="10" d="M 516 58 L 516 54 "/>
<path fill="none" stroke-width="2" stroke-linecap="butt" stroke-linejoin="miter" stroke="rgb(0%, 0%, 0%)" stroke-opacity="1" stroke-miterlimit="10" d="M 538 58 L 538 54 "/>
<path fill="none" stroke-width="2" stroke-linecap="butt" stroke-linejoin="miter" stroke="rgb(0%, 0%, 0%)" stroke-opacity="1" stroke-miterlimit="10" d="M 583 58 L 583 54 "/>
<path fill="none" stroke-width="2" stroke-linecap="butt" stroke-linejoin="miter" stroke="rgb(0%, 0%, 0%)" stroke-opacity="1" stroke-miterlimit="10" d="M 583 442 L 583 55 "/>
<g fill="rgb(0%, 0%, 0%)" fill-opacity="1">
<use xlink:href="#glyph-0-0" x="651" y="236.476562"/>
<use xlink:href="#glyph-0-1" x="651" y="249.816406"/>
</g>
<path fill="none" stroke-width="2" stroke-linecap="butt" stroke-linejoin="miter" stroke="rgb(0%, 0%, 0%)" stroke-opacity="1" stroke-miterlimit="10" d="M 575 425 L 583 425 "/>
<g fill="rgb(0%, 0%, 0%)" fill-opacity="1">
<use xlink:href="#glyph-1-0" x="591.375" y="431.800781"/>
</g>
<path fill="none" stroke-width="2" stroke-linecap="butt" stroke-linejoin="miter" stroke="rgb(0%, 0%, 0%)" stroke-opacity="1" stroke-miterlimit="10" d="M 575 337 L 583 337 "/>
<g fill="rgb(0%, 0%, 0%)" fill-opacity="1">
<use xlink:href="#glyph-1-1" x="591.355469" y="343.699219"/>
</g>
<path fill="none" stroke-width="2" stroke-linecap="butt" stroke-linejoin="miter" stroke="rgb(0%, 0%, 0%)" stroke-opacity="1" stroke-miterlimit="10" d="M 575 248 L 583 248 "/>
<g fill="rgb(0%, 0%, 0%)" fill-opacity="1">
<use xlink:href="#glyph-1-2" x="590.085938" y="254.800781"/>
<use xlink:href="#glyph-1-0" x="601.208984" y="254.800781"/>
</g>
<path fill="none" stroke-width="2" stroke-linecap="butt" stroke-linejoin="miter" stroke="rgb(0%, 0%, 0%)" stroke-opacity="1" stroke-miterlimit="10" d="M 575 160 L 583 160 "/>
<g fill="rgb(0%, 0%, 0%)" fill-opacity="1">
<use xlink:href="#glyph-1-2" x="590.085938" y="166.789062"/>
<use xlink:href="#glyph-1-1" x="601.208984" y="166.789062"/>
</g>
<path fill="none" stroke-width="2" stroke-linecap="butt" stroke-linejoin="miter" stroke="rgb(0%, 0%, 0%)" stroke-opacity="1" stroke-miterlimit="10" d="M 575 72 L 583 72 "/>
<g fill="rgb(0%, 0%, 0%)" fill-opacity="1">
<use xlink:href="#glyph-1-3" x="591.375" y="78.828125"/>
<use xlink:href="#glyph-1-0" x="602.498047" y="78.828125"/>
</g>
<path fill="none" stroke-width="2" stroke-linecap="butt" stroke-linejoin="miter" stroke="rgb(0%, 0%, 0%)" stroke-opacity="1" stroke-miterlimit="10" d="M 579 443 L 583 443 "/>
<path fill="none" stroke-width="2" stroke-linecap="butt" stroke-linejoin="miter" stroke="rgb(0%, 0%, 0%)" stroke-opacity="1" stroke-miterlimit="10" d="M 579 408 L 583 408 "/>
<path fill="none" stroke-width="2" stroke-linecap="butt" stroke-linejoin="miter" stroke="rgb(0%, 0%, 0%)" stroke-opacity="1" stroke-miterlimit="10" d="M 579 390 L 583 390 "/>
<path fill="none" stroke-width="2" stroke-linecap="butt" stroke-linejoin="miter" stroke="rgb(0%, 0%, 0%)" stroke-opacity="1" stroke-miterlimit="10" d="M 579 372 L 583 372 "/>
<path fill="none" stroke-width="2" stroke-linecap="butt" stroke-linejoin="miter" stroke="rgb(0%, 0%, 0%)" stroke-opacity="1" stroke-miterlimit="10" d="M 579 355 L 583 355 "/>
<path fill="none" stroke-width="2" stroke-linecap="butt" stroke-linejoin="miter" stroke="rgb(0%, 0%, 0%)" stroke-opacity="1" stroke-miterlimit="10" d="M 579 319 L 583 319 "/>
<path fill="none" stroke-width="2" stroke-linecap="butt" stroke-linejoin="miter" stroke="rgb(0%, 0%, 0%)" stroke-opacity="1" stroke-miterlimit="10" d="M 579 302 L 583 302 "/>
<path fill="none" stroke-width="2" stroke-linecap="butt" stroke-linejoin="miter" stroke="rgb(0%, 0%, 0%)" stroke-opacity="1" stroke-miterlimit="10" d="M 579 284 L 583 284 "/>
<path fill="none" stroke-width="2" stroke-linecap="butt" stroke-linejoin="miter" stroke="rgb(0%, 0%, 0%)" stroke-opacity="1" stroke-miterlimit="10" d="M 579 266 L 583 266 "/>
<path fill="none" stroke-width="2" stroke-linecap="butt" stroke-linejoin="miter" stroke="rgb(0%, 0%, 0%)" stroke-opacity="1" stroke-miterlimit="10" d="M 579 231 L 583 231 "/>
<path fill="none" stroke-width="2" stroke-linecap="butt" stroke-linejoin="miter" stroke="rgb(0%, 0%, 0%)" stroke-opacity="1" stroke-miterlimit="10" d="M 579 213 L 583 213 "/>
<path fill="none" stroke-width="2" stroke-linecap="butt" stroke-linejoin="miter" stroke="rgb(0%, 0%, 0%)" stroke-opacity="1" stroke-miterlimit="10" d="M 579 195 L 583 195 "/>
<path fill="none" stroke-width="2" stroke-linecap="butt" stroke-linejoin="miter" stroke="rgb(0%, 0%, 0%)" stroke-opacity="1" stroke-miterlimit="10" d="M 579 178 L 583 178 "/>
<path fill="none" stroke-width="2" stroke-linecap="butt" stroke-linejoin="miter" stroke="rgb(0%, 0%, 0%)" stroke-opacity="1" stroke-miterlimit="10" d="M 579 142 L 583 142 "/>
<path fill="none" stroke-width="2" stroke-linecap="butt" stroke-linejoin="miter" stroke="rgb(0%, 0%, 0%)" stroke-opacity="1" stroke-miterlimit="10" d="M 579 125 L 583 125 "/>
<path fill="none" stroke-width="2" stroke-linecap="butt" stroke-linejoin="miter" stroke="rgb(0%, 0%, 0%)" stroke-opacity="1" stroke-miterlimit="10" d="M 579 107 L 583 107 "/>
<path fill="none" stroke-width="2" stroke-linecap="butt" stroke-linejoin="miter" stroke="rgb(0%, 0%, 0%)" stroke-opacity="1" stroke-miterlimit="10" d="M 579 89 L 583 89 "/>
<path fill="none" stroke-width="2" stroke-linecap="butt" stroke-linejoin="miter" stroke="rgb(0%, 0%, 0%)" stroke-opacity="1" stroke-miterlimit="10" d="M 579 54 L 583 54 "/>
<path fill="none" stroke-width="2" stroke-linecap="butt" stroke-linejoin="miter" stroke="rgb(0%, 0%, 0%)" stroke-opacity="1" stroke-miterlimit="10" d="M 92 442 L 92 53 "/>
<g fill="rgb(0%, 0%, 0%)" fill-opacity="1">
<use xlink:href="#glyph-2-0" x="24" y="258.914062"/>
<use xlink:href="#glyph-2-1" x="24" y="245.574219"/>
</g>
<path fill="none" stroke-width="2" stroke-linecap="butt" stroke-linejoin="miter" stroke="rgb(0%, 0%, 0%)" stroke-opacity="1" stroke-miterlimit="10" d="M 92 425 L 100 425 "/>
<g fill="rgb(0%, 0%, 0%)" fill-opacity="1">
<use xlink:href="#glyph-1-0" x="44.921875" y="431.800781"/>
<use xlink:href="#glyph-1-4" x="56.044922" y="431.800781"/>
<use xlink:href="#glyph-1-0" x="61.601562" y="431.800781"/>
<use xlink:href="#glyph-1-0" x="72.724609" y="431.800781"/>
</g>
<path fill="none" stroke-width="2" stroke-linecap="butt" stroke-linejoin="miter" stroke="rgb(0%, 0%, 0%)" stroke-opacity="1" stroke-miterlimit="10" d="M 92 337 L 100 337 "/>
<g fill="rgb(0%, 0%, 0%)" fill-opacity="1">
<use xlink:href="#glyph-1-0" x="44.921875" y="343.828125"/>
<use xlink:href="#glyph-1-4" x="56.044922" y="343.828125"/>
<use xlink:href="#glyph-1-3" x="61.601562" y="343.828125"/>
<use xlink:href="#glyph-1-1" x="72.724609" y="343.828125"/>
</g>
<path fill="none" stroke-width="2" stroke-linecap="butt" stroke-linejoin="miter" stroke="rgb(0%, 0%, 0%)" stroke-opacity="1" stroke-miterlimit="10" d="M 92 248 L 100 248 "/>
<g fill="rgb(0%, 0%, 0%)" fill-opacity="1">
<use xlink:href="#glyph-1-0" x="44.921875" y="254.800781"/>
<use xlink:href="#glyph-1-4" x="56.044922" y="254.800781"/>
<use xlink:href="#glyph-1-1" x="61.601562" y="254.800781"/>
<use xlink:href="#glyph-1-0" x="72.724609" y="254.800781"/>
</g>
<path fill="none" stroke-width="2" stroke-linecap="butt" stroke-linejoin="miter" stroke="rgb(0%, 0%, 0%)" stroke-opacity="1" stroke-miterlimit="10" d="M 92 160 L 100 160 "/>
<g fill="rgb(0%, 0%, 0%)" fill-opacity="1">
<use xlink:href="#glyph-1-0" x="44.921875" y="166.800781"/>
<use xlink:href="#glyph-1-4" x="56.044922" y="166.800781"/>
<use xlink:href="#glyph-1-5" x="61.601562" y="166.800781"/>
<use xlink:href="#glyph-1-1" x="72.724609" y="166.800781"/>
</g>
<path fill="none" stroke-width="2" stroke-linecap="butt" stroke-linejoin="miter" stroke="rgb(0%, 0%, 0%)" stroke-opacity="1" stroke-miterlimit="10" d="M 92 72 L 100 72 "/>
<g fill="rgb(0%, 0%, 0%)" fill-opacity="1">
<use xlink:href="#glyph-1-2" x="44.921875" y="78.800781"/>
<use xlink:href="#glyph-1-4" x="56.044922" y="78.800781"/>
<use xlink:href="#glyph-1-0" x="61.601562" y="78.800781"/>
<use xlink:href="#glyph-1-0" x="72.724609" y="78.800781"/>
</g>
<path fill="none" stroke-width="2" stroke-linecap="butt" stroke-linejoin="miter" stroke="rgb(0%, 0%, 0%)" stroke-opacity="1" stroke-miterlimit="10" d="M 92 443 L 96 443 "/>
<path fill="none" stroke-width="2" stroke-linecap="butt" stroke-linejoin="miter" stroke="rgb(0%, 0%, 0%)" stroke-opacity="1" stroke-miterlimit="10" d="M 92 408 L 96 408 "/>
<path fill="none" stroke-width="2" stroke-linecap="butt" stroke-linejoin="miter" stroke="rgb(0%, 0%, 0%)" stroke-opacity="1" stroke-miterlimit="10" d="M 92 390 L 96 390 "/>
<path fill="none" stroke-width="2" stroke-linecap="butt" stroke-linejoin="miter" stroke="rgb(0%, 0%, 0%)" stroke-opacity="1" stroke-miterlimit="10" d="M 92 372 L 96 372 "/>
<path fill="none" stroke-width="2" stroke-linecap="butt" stroke-linejoin="miter" stroke="rgb(0%, 0%, 0%)" stroke-opacity="1" stroke-miterlimit="10" d="M 92 355 L 96 355 "/>
<path fill="none" stroke-width="2" stroke-linecap="butt" stroke-linejoin="miter" stroke="rgb(0%, 0%, 0%)" stroke-opacity="1" stroke-miterlimit="10" d="M 92 337 L 96 337 "/>
<path fill="none" stroke-width="2" stroke-linecap="butt" stroke-linejoin="miter" stroke="rgb(0%, 0%, 0%)" stroke-opacity="1" stroke-miterlimit="10" d="M 92 319 L 96 319 "/>
<path fill="none" stroke-width="2" stroke-linecap="butt" stroke-linejoin="miter" stroke="rgb(0%, 0%, 0%)" stroke-opacity="1" stroke-miterlimit="10" d="M 92 302 L 96 302 "/>
<path fill="none" stroke-width="2" stroke-linecap="butt" stroke-linejoin="miter" stroke="rgb(0%, 0%, 0%)" stroke-opacity="1" stroke-miterlimit="10" d="M 92 284 L 96 284 "/>
<path fill="none" stroke-width="2" stroke-linecap="butt" stroke-linejoin="miter" stroke="rgb(0%, 0%, 0%)" stroke-opacity="1" stroke-miterlimit="10" d="M 92 266 L 96 266 "/>
<path fill="none" stroke-width="2" stroke-linecap="butt" stroke-linejoin="miter" stroke="rgb(0%, 0%, 0%)" stroke-opacity="1" stroke-miterlimit="10" d="M 92 231 L 96 231 "/>
<path fill="none" stroke-width="2" stroke-linecap="butt" stroke-linejoin="miter" stroke="rgb(0%, 0%, 0%)" stroke-opacity="1" stroke-miterlimit="10" d="M 92 213 L 96 213 "/>
<path fill="none" stroke-width="2" stroke-linecap="butt" stroke-linejoin="miter" stroke="rgb(0%, 0%, 0%)" stroke-opacity="1" stroke-miterlimit="10" d="M 92 195 L 96 195 "/>
<path fill="none" stroke-width="2" stroke-linecap="butt" stroke-linejoin="miter" stroke="rgb(0%, 0%, 0%)" stroke-opacity="1" stroke-miterlimit="10" d="M 92 178 L 96 178 "/>
<path fill="none" stroke-width="2" stroke-linecap="butt" stroke-linejoin="miter" stroke="rgb(0%, 0%, 0%)" stroke-opacity="1" stroke-miterlimit="10" d="M 92 142 L 96 142 "/>
<path fill="none" stroke-width="2" stroke-linecap="butt" stroke-linejoin="miter" stroke="rgb(0%, 0%, 0%)" stroke-opacity="1" stroke-miterlimit="10" d="M 92 125 L 96 125 "/>
<path fill="none" stroke-width="2" stroke-linecap="butt" stroke-linejoin="miter" stroke="rgb(0%, 0%, 0%)" stroke-opacity="1" stroke-miterlimit="10" d="M 92 107 L 96 107 "/>
<path fill="none" stroke-width="2" stroke-linecap="butt" stroke-linejoin="miter" stroke="rgb(0%, 0%, 0%)" stroke-opacity="1" stroke-miterlimit="10" d="M 92 89 L 96 89 "/>
<path fill="none" stroke-width="2" stroke-linecap="butt" stroke-linejoin="miter" stroke="rgb(0%, 0%, 0%)" stroke-opacity="1" stroke-miterlimit="10" d="M 92 54 L 96 54 "/>
<path fill="none" stroke-width="2" stroke-linecap="butt" stroke-linejoin="miter" stroke="rgb(0%, 0%, 0%)" stroke-opacity="1" stroke-miterlimit="10" d="M 91 443 L 584 443 "/>
<g fill="rgb(0%, 0%, 0%)" fill-opacity="1">
<use xlink:href="#glyph-1-6" x="330.789062" y="490.34375"/>
</g>
<path fill="none" stroke-width="2" stroke-linecap="butt" stroke-linejoin="miter" stroke="rgb(0%, 0%, 0%)" stroke-opacity="1" stroke-miterlimit="10" d="M 114 443 L 114 435 "/>
<g fill="rgb(0%, 0%, 0%)" fill-opacity="1">
<use xlink:href="#glyph-1-0" x="94.648438" y="465.984375"/>
<use xlink:href="#glyph-1-4" x="105.771484" y="465.984375"/>
<use xlink:href="#glyph-1-0" x="111.328125" y="465.984375"/>
<use xlink:href="#glyph-1-0" x="122.451172" y="465.984375"/>
</g>
<path fill="none" stroke-width="2" stroke-linecap="butt" stroke-linejoin="miter" stroke="rgb(0%, 0%, 0%)" stroke-opacity="1" stroke-miterlimit="10" d="M 226 443 L 226 435 "/>
<g fill="rgb(0%, 0%, 0%)" fill-opacity="1">
<use xlink:href="#glyph-1-0" x="206.648438" y="466.03125"/>
<use xlink:href="#glyph-1-4" x="217.771484" y="466.03125"/>
<use xlink:href="#glyph-1-3" x="223.328125" y="466.03125"/>
<use xlink:href="#glyph-1-1" x="234.451172" y="466.03125"/>
</g>
<path fill="none" stroke-width="2" stroke-linecap="butt" stroke-linejoin="miter" stroke="rgb(0%, 0%, 0%)" stroke-opacity="1" stroke-miterlimit="10" d="M 338 443 L 338 435 "/>
<g fill="rgb(0%, 0%, 0%)" fill-opacity="1">
<use xlink:href="#glyph-1-0" x="318.648438" y="465.984375"/>
<use xlink:href="#glyph-1-4" x="329.771484" y="465.984375"/>
<use xlink:href="#glyph-1-1" x="335.328125" y="465.984375"/>
<use xlink:href="#glyph-1-0" x="346.451172" y="465.984375"/>
</g>
<path fill="none" stroke-width="2" stroke-linecap="butt" stroke-linejoin="miter" stroke="rgb(0%, 0%, 0%)" stroke-opacity="1" stroke-miterlimit="10" d="M 449 443 L 449 435 "/>
<g fill="rgb(0%, 0%, 0%)" fill-opacity="1">
<use xlink:href="#glyph-1-0" x="429.648438" y="465.984375"/>
<use xlink:href="#glyph-1-4" x="440.771484" y="465.984375"/>
<use xlink:href="#glyph-1-5" x="446.328125" y="465.984375"/>
<use xlink:href="#glyph-1-1" x="457.451172" y="465.984375"/>
</g>
<path fill="none" stroke-width="2" stroke-linecap="butt" stroke-linejoin="miter" stroke="rgb(0%, 0%, 0%)" stroke-opacity="1" stroke-miterlimit="10" d="M 561 443 L 561 435 "/>
<g fill="rgb(0%, 0%, 0%)" fill-opacity="1">
<use xlink:href="#glyph-1-2" x="541.003906" y="465.984375"/>
<use xlink:href="#glyph-1-4" x="552.126953" y="465.984375"/>
<use xlink:href="#glyph-1-0" x="557.683594" y="465.984375"/>
<use xlink:href="#glyph-1-0" x="568.806641" y="465.984375"/>
</g>
<path fill="none" stroke-width="2" stroke-linecap="butt" stroke-linejoin="miter" stroke="rgb(0%, 0%, 0%)" stroke-opacity="1" stroke-miterlimit="10" d="M 92 443 L 92 439 "/>
<path fill="none" stroke-width="2" stroke-linecap="butt" stroke-linejoin="miter" stroke="rgb(0%, 0%, 0%)" stroke-opacity="1" stroke-miterlimit="10" d="M 137 443 L 137 439 "/>
<path fill="none" stroke-width="2" stroke-linecap="butt" stroke-linejoin="miter" stroke="rgb(0%, 0%, 0%)" stroke-opacity="1" stroke-miterlimit="10" d="M 159 443 L 159 439 "/>
<path fill="none" stroke-width="2" stroke-linecap="butt" stroke-linejoin="miter" stroke="rgb(0%, 0%, 0%)" stroke-opacity="1" stroke-miterlimit="10" d="M 181 443 L 181 439 "/>
<path fill="none" stroke-width="2" stroke-linecap="butt" stroke-linejoin="miter" stroke="rgb(0%, 0%, 0%)" stroke-opacity="1" stroke-miterlimit="10" d="M 204 443 L 204 439 "/>
<path fill="none" stroke-width="2" stroke-linecap="butt" stroke-linejoin="miter" stroke="rgb(0%, 0%, 0%)" stroke-opacity="1" stroke-miterlimit="10" d="M 226 443 L 226 439 "/>
<path fill="none" stroke-width="2" stroke-linecap="butt" stroke-linejoin="miter" stroke="rgb(0%, 0%, 0%)" stroke-opacity="1" stroke-miterlimit="10" d="M 248 443 L 248 439 "/>
<path fill="none" stroke-width="2" stroke-linecap="butt" stroke-linejoin="miter" stroke="rgb(0%, 0%, 0%)" stroke-opacity="1" stroke-miterlimit="10" d="M 271 443 L 271 439 "/>
<path fill="none" stroke-width="2" stroke-linecap="butt" stroke-linejoin="miter" stroke="rgb(0%, 0%, 0%)" stroke-opacity="1" stroke-miterlimit="10" d="M 293 443 L 293 439 "/>
<path fill="none" stroke-width="2" stroke-linecap="butt" stroke-linejoin="miter" stroke="rgb(0%, 0%, 0%)" stroke-opacity="1" stroke-miterlimit="10" d="M 315 443 L 315 439 "/>
<path fill="none" stroke-width="2" stroke-linecap="butt" stroke-linejoin="miter" stroke="rgb(0%, 0%, 0%)" stroke-opacity="1" stroke-miterlimit="10" d="M 360 443 L 360 439 "/>
<path fill="none" stroke-width="2" stroke-linecap="butt" stroke-linejoin="miter" stroke="rgb(0%, 0%, 0%)" stroke-opacity="1" stroke-miterlimit="10" d="M 382 443 L 382 439 "/>
<path fill="none" stroke-width="2" stroke-linecap="butt" stroke-linejoin="miter" stroke="rgb(0%, 0%, 0%)" stroke-opacity="1" stroke-miterlimit="10" d="M 404 443 L 404 439 "/>
<path fill="none" stroke-width="2" stroke-linecap="butt" stroke-linejoin="miter" stroke="rgb(0%, 0%, 0%)" stroke-opacity="1" stroke-miterlimit="10" d="M 427 443 L 427 439 "/>
<path fill="none" stroke-width="2" stroke-linecap="butt" stroke-linejoin="miter" stroke="rgb(0%, 0%, 0%)" stroke-opacity="1" stroke-miterlimit="10" d="M 471 443 L 471 439 "/>
<path fill="none" stroke-width="2" stroke-linecap="butt" stroke-linejoin="miter" stroke="rgb(0%, 0%, 0%)" stroke-opacity="1" stroke-miterlimit="10" d="M 494 443 L 494 439 "/>
<path fill="none" stroke-width="2" stroke-linecap="butt" stroke-linejoin="miter" stroke="rgb(0%, 0%, 0%)" stroke-opacity="1" stroke-miterlimit="10" d="M 516 443 L 516 439 "/>
<path fill="none" stroke-width="2" stroke-linecap="butt" stroke-linejoin="miter" stroke="rgb(0%, 0%, 0%)" stroke-opacity="1" stroke-miterlimit="10" d="M 538 443 L 538 439 "/>
<path fill="none" stroke-width="2" stroke-linecap="butt" stroke-linejoin="miter" stroke="rgb(0%, 0%, 0%)" stroke-opacity="1" stroke-miterlimit="10" d="M 583 443 L 583 439 "/>
<g fill="rgb(0%, 0%, 0%)" fill-opacity="1">
<use xlink:href="#glyph-1-7" x="285.230469" y="44.617188"/>
<use xlink:href="#glyph-1-8" x="299.673828" y="44.617188"/>
<use xlink:href="#glyph-1-9" x="310.796875" y="44.617188"/>
<use xlink:href="#glyph-1-10" x="321.919922" y="44.617188"/>
<use xlink:href="#glyph-1-11" x="333.042969" y="44.617188"/>
<use xlink:href="#glyph-1-12" x="337.486328" y="44.617188"/>
<use xlink:href="#glyph-1-13" x="348.609375" y="44.617188"/>
<use xlink:href="#glyph-1-14" x="354.166016" y="44.617188"/>
<use xlink:href="#glyph-1-11" x="367.505859" y="44.617188"/>
<use xlink:href="#glyph-1-8" x="371.949219" y="44.617188"/>
<use xlink:href="#glyph-1-15" x="383.072266" y="44.617188"/>
</g>
</svg>
