<?xml version="1.0" encoding="UTF-8"?>
<svg xmlns="http://www.w3.org/2000/svg" xmlns:xlink="http://www.w3.org/1999/xlink" width="675" height="500" viewBox="0 0 675 500">
<defs>
<g>
<g id="glyph-0-0">
<path d="M 2.753906 0 L 0.410156 0 L 5.546875 -7.351562 L 0.734375 -14.34375 L 3.164062 -14.34375 L 6.828125 -8.859375 L 10.460938 -14.34375 L 12.773438 -14.34375 L 7.960938 -7.351562 L 13.007812 0 L 10.59375 0 L 6.726562 -5.898438 Z M 2.753906 0 "/>
</g>
<g id="glyph-0-1">
<path d="M 5.410156 -13.984375 C 7.21875 -13.984375 8.527344 -13.238281 9.335938 -11.75 C 9.960938 -10.597656 10.273438 -9.015625 10.273438 -7.011719 C 10.273438 -5.109375 9.992188 -3.539062 9.421875 -2.296875 C 8.601562 -0.511719 7.261719 0.382812 5.398438 0.382812 C 3.71875 0.382812 2.46875 -0.347656 1.648438 -1.804688 C 0.964844 -3.023438 0.625 -4.65625 0.625 -6.710938 C 0.625 -8.296875 0.828125 -9.660156 1.242188 -10.800781 C 2.007812 -12.921875 3.398438 -13.984375 5.410156 -13.984375 Z M 5.390625 -1.21875 C 6.300781 -1.21875 7.027344 -1.625 7.570312 -2.429688 C 8.109375 -3.238281 8.378906 -4.742188 8.378906 -6.945312 C 8.378906 -8.53125 8.183594 -9.839844 7.792969 -10.863281 C 7.402344 -11.890625 6.644531 -12.402344 5.515625 -12.402344 C 4.480469 -12.402344 3.726562 -11.914062 3.246094 -10.941406 C 2.769531 -9.96875 2.53125 -8.535156 2.53125 -6.640625 C 2.53125 -5.214844 2.683594 -4.070312 2.988281 -3.203125 C 3.457031 -1.882812 4.257812 -1.21875 5.390625 -1.21875 Z M 5.390625 -1.21875 "/>
</g>
<g id="glyph-0-2">
<path d="M 1.710938 -2.128906 L 3.75 -2.128906 L 3.75 0 L 1.710938 0 Z M 1.710938 -2.128906 "/>
</g>
<g id="glyph-0-3">
<path d="M 0.625 0 C 0.691406 -1.203125 0.9375 -2.253906 1.371094 -3.144531 C 1.804688 -4.035156 2.648438 -4.847656 3.90625 -5.578125 L 5.78125 -6.660156 C 6.621094 -7.148438 7.210938 -7.566406 7.546875 -7.910156 C 8.082031 -8.449219 8.351562 -9.070312 8.351562 -9.765625 C 8.351562 -10.578125 8.105469 -11.226562 7.617188 -11.703125 C 7.128906 -12.183594 6.476562 -12.421875 5.664062 -12.421875 C 4.460938 -12.421875 3.625 -11.964844 3.164062 -11.054688 C 2.917969 -10.566406 2.78125 -9.890625 2.753906 -9.023438 L 0.96875 -9.023438 C 0.988281 -10.242188 1.210938 -11.234375 1.640625 -12 C 2.402344 -13.355469 3.746094 -14.03125 5.671875 -14.03125 C 7.273438 -14.03125 8.445312 -13.601562 9.183594 -12.734375 C 9.921875 -11.867188 10.292969 -10.90625 10.292969 -9.84375 C 10.292969 -8.722656 9.898438 -7.765625 9.109375 -6.972656 C 8.65625 -6.511719 7.839844 -5.949219 6.660156 -5.292969 L 5.320312 -4.550781 C 4.683594 -4.199219 4.183594 -3.863281 3.820312 -3.546875 C 3.167969 -2.980469 2.757812 -2.351562 2.585938 -1.660156 L 10.226562 -1.660156 L 10.226562 0 Z M 0.625 0 "/>
</g>
<g id="glyph-0-4">
<path d="M 2.46875 -3.5625 C 2.585938 -2.5625 3.054688 -1.867188 3.867188 -1.484375 C 4.285156 -1.289062 4.765625 -1.191406 5.3125 -1.191406 C 6.355469 -1.191406 7.125 -1.523438 7.625 -2.1875 C 8.128906 -2.851562 8.378906 -3.585938 8.378906 -4.394531 C 8.378906 -5.371094 8.082031 -6.125 7.484375 -6.660156 C 6.890625 -7.195312 6.175781 -7.460938 5.34375 -7.460938 C 4.738281 -7.460938 4.21875 -7.34375 3.785156 -7.109375 C 3.351562 -6.875 2.980469 -6.550781 2.675781 -6.132812 L 1.152344 -6.21875 L 2.21875 -13.75 L 9.484375 -13.75 L 9.484375 -12.050781 L 3.535156 -12.050781 L 2.9375 -8.164062 C 3.265625 -8.410156 3.574219 -8.597656 3.867188 -8.71875 C 4.386719 -8.933594 4.992188 -9.042969 5.671875 -9.042969 C 6.957031 -9.042969 8.042969 -8.628906 8.9375 -7.804688 C 9.828125 -6.976562 10.273438 -5.929688 10.273438 -4.65625 C 10.273438 -3.335938 9.863281 -2.171875 9.046875 -1.164062 C 8.230469 -0.152344 6.925781 0.351562 5.136719 0.351562 C 3.996094 0.351562 2.988281 0.03125 2.113281 -0.609375 C 1.238281 -1.25 0.75 -2.234375 0.644531 -3.5625 Z M 2.46875 -3.5625 "/>
</g>
<g id="glyph-0-5">
<path d="M 10.460938 -13.75 L 10.460938 -12.21875 C 10.011719 -11.78125 9.414062 -11.023438 8.667969 -9.941406 C 7.921875 -8.859375 7.261719 -7.695312 6.6875 -6.445312 C 6.121094 -5.226562 5.695312 -4.117188 5.398438 -3.117188 C 5.210938 -2.472656 4.96875 -1.433594 4.667969 0 L 2.726562 0 C 3.167969 -2.667969 4.144531 -5.324219 5.65625 -7.96875 C 6.546875 -9.519531 7.484375 -10.855469 8.46875 -11.984375 L 0.734375 -11.984375 L 0.734375 -13.75 Z M 10.460938 -13.75 "/>
</g>
<g id="glyph-0-6">
<path d="M 1.914062 -9.902344 L 1.914062 -11.25 C 3.183594 -11.375 4.070312 -11.582031 4.570312 -11.871094 C 5.070312 -12.160156 5.445312 -12.84375 5.695312 -13.925781 L 7.078125 -13.925781 L 7.078125 0 L 5.203125 0 L 5.203125 -9.902344 Z M 1.914062 -9.902344 "/>
</g>
<g id="glyph-1-0">
<path d="M -14.34375 -0.410156 L -14.34375 -2.675781 L -7.453125 -6.796875 L -14.347656 -10.917969 L -14.347656 -13.191406 L -5.78125 -7.773438 L 0 -7.773438 L 0 -5.828125 L -5.78125 -5.828125 Z M -14.34375 -0.410156 "/>
</g>
</g>
</defs>
<rect x="-67.5" y="-50" width="810" height="600" fill="rgb(100%, 100%, 100%)" fill-opacity="1"/>
<path fill="none" stroke-width="3" stroke-linecap="butt" stroke-linejoin="round" stroke="rgb(27.1%, 52.2%, 53.3%)" stroke-opacity="1" stroke-miterlimit="10" d="M 117.636719 423.726562 L 122.664062 423.726562 L 132.71875 423.71875 L 137.746094 423.703125 L 142.773438 423.679688 L 147.800781 423.644531 L 152.828125 423.597656 L 157.855469 423.535156 L 162.882812 423.453125 L 167.910156 423.351562 L 172.9375 423.226562 L 177.964844 423.078125 L 182.992188 422.902344 L 188.019531 422.695312 L 193.046875 422.460938 L 198.074219 422.1875 L 203.101562 421.882812 L 208.128906 421.539062 L 213.15625 421.152344 L 218.183594 420.722656 L 223.210938 420.25 L 228.238281 419.730469 L 233.261719 419.160156 L 238.289062 418.535156 L 243.316406 417.859375 L 248.34375 417.128906 L 253.371094 416.335938 L 258.398438 415.484375 L 263.425781 414.570312 L 268.453125 413.589844 L 273.480469 412.542969 L 278.507812 411.425781 L 283.535156 410.234375 L 288.5625 408.96875 L 293.589844 407.628906 L 298.617188 406.210938 L 303.644531 404.710938 L 308.671875 403.125 L 313.699219 401.457031 L 318.726562 399.699219 L 323.753906 397.851562 L 328.78125 395.910156 L 333.808594 393.875 L 338.835938 391.746094 L 343.863281 389.515625 L 348.890625 387.183594 L 353.917969 384.746094 L 358.945312 382.203125 L 363.972656 379.554688 L 369 376.796875 L 374.027344 373.921875 L 379.054688 370.933594 L 384.082031 367.832031 L 389.109375 364.605469 L 394.136719 361.261719 L 399.164062 357.792969 L 404.191406 354.195312 L 409.21875 350.472656 L 414.246094 346.617188 L 419.273438 342.628906 L 424.300781 338.507812 L 429.328125 334.246094 L 434.355469 329.847656 L 439.382812 325.304688 L 444.410156 320.617188 L 449.4375 315.785156 L 454.464844 310.804688 L 459.492188 305.671875 L 464.519531 300.386719 L 469.546875 294.945312 L 474.574219 289.347656 L 479.601562 283.589844 L 484.628906 277.667969 L 489.65625 271.585938 L 494.683594 265.332031 L 499.710938 258.910156 L 504.738281 252.320312 L 509.761719 245.554688 L 514.789062 238.613281 L 519.816406 231.496094 L 524.84375 224.195312 L 529.871094 216.714844 L 534.898438 209.046875 L 539.925781 201.195312 L 544.953125 193.152344 L 549.980469 184.917969 L 555.007812 176.488281 L 560.035156 167.867188 L 565.0625 159.042969 L 570.089844 150.019531 L 575.117188 140.796875 L 580.144531 131.367188 L 585.171875 121.726562 L 590.199219 111.878906 L 595.226562 101.820312 L 600.253906 91.550781 L 605.28125 81.058594 L 610.308594 70.351562 L 615.335938 59.425781 L 620.363281 48.273438 "/>
<path fill="none" stroke-width="2" stroke-linecap="butt" stroke-linejoin="miter" stroke="rgb(0%, 0%, 0%)" stroke-opacity="1" stroke-miterlimit="10" d="M 91 443 L 646 443 "/>
<g fill="rgb(0%, 0%, 0%)" fill-opacity="1">
<use xlink:href="#glyph-0-0" x="361.789062" y="490.34375"/>
</g>
<path fill="none" stroke-width="2" stroke-linecap="butt" stroke-linejoin="miter" stroke="rgb(0%, 0%, 0%)" stroke-opacity="1" stroke-miterlimit="10" d="M 117 443 L 117 435 "/>
<g fill="rgb(0%, 0%, 0%)" fill-opacity="1">
<use xlink:href="#glyph-0-1" x="103.210938" y="465.984375"/>
<use xlink:href="#glyph-0-2" x="114.333984" y="465.984375"/>
<use xlink:href="#glyph-0-1" x="119.890625" y="465.984375"/>
</g>
<path fill="none" stroke-width="2" stroke-linecap="butt" stroke-linejoin="miter" stroke="rgb(0%, 0%, 0%)" stroke-opacity="1" stroke-miterlimit="10" d="M 243 443 L 243 435 "/>
<g fill="rgb(0%, 0%, 0%)" fill-opacity="1">
<use xlink:href="#glyph-0-3" x="229.210938" y="466.03125"/>
<use xlink:href="#glyph-0-2" x="240.333984" y="466.03125"/>
<use xlink:href="#glyph-0-4" x="245.890625" y="466.03125"/>
</g>
<path fill="none" stroke-width="2" stroke-linecap="butt" stroke-linejoin="miter" stroke="rgb(0%, 0%, 0%)" stroke-opacity="1" stroke-miterlimit="10" d="M 369 443 L 369 435 "/>
<g fill="rgb(0%, 0%, 0%)" fill-opacity="1">
<use xlink:href="#glyph-0-4" x="355.203125" y="465.984375"/>
<use xlink:href="#glyph-0-2" x="366.326172" y="465.984375"/>
<use xlink:href="#glyph-0-1" x="371.882812" y="465.984375"/>
</g>
<path fill="none" stroke-width="2" stroke-linecap="butt" stroke-linejoin="miter" stroke="rgb(0%, 0%, 0%)" stroke-opacity="1" stroke-miterlimit="10" d="M 494 443 L 494 435 "/>
<g fill="rgb(0%, 0%, 0%)" fill-opacity="1">
<use xlink:href="#glyph-0-5" x="480.15625" y="465.75"/>
<use xlink:href="#glyph-0-2" x="491.279297" y="465.75"/>
<use xlink:href="#glyph-0-4" x="496.835938" y="465.75"/>
</g>
<path fill="none" stroke-width="2" stroke-linecap="butt" stroke-linejoin="miter" stroke="rgb(0%, 0%, 0%)" stroke-opacity="1" stroke-miterlimit="10" d="M 620 443 L 620 435 "/>
<g fill="rgb(0%, 0%, 0%)" fill-opacity="1">
<use xlink:href="#glyph-0-6" x="600.003906" y="465.984375"/>
<use xlink:href="#glyph-0-1" x="611.126953" y="465.984375"/>
<use xlink:href="#glyph-0-2" x="622.25" y="465.984375"/>
<use xlink:href="#glyph-0-1" x="627.806641" y="465.984375"/>
</g>
<path fill="none" stroke-width="2" stroke-linecap="butt" stroke-linejoin="miter" stroke="rgb(0%, 0%, 0%)" stroke-opacity="1" stroke-miterlimit="10" d="M 92 443 L 92 439 "/>
<path fill="none" stroke-width="2" stroke-linecap="butt" stroke-linejoin="miter" stroke="rgb(0%, 0%, 0%)" stroke-opacity="1" stroke-miterlimit="10" d="M 142 443 L 142 439 "/>
<path fill="none" stroke-width="2" stroke-linecap="butt" stroke-linejoin="miter" stroke="rgb(0%, 0%, 0%)" stroke-opacity="1" stroke-miterlimit="10" d="M 167 443 L 167 439 "/>
<path fill="none" stroke-width="2" stroke-linecap="butt" stroke-linejoin="miter" stroke="rgb(0%, 0%, 0%)" stroke-opacity="1" stroke-miterlimit="10" d="M 193 443 L 193 439 "/>
<path fill="none" stroke-width="2" stroke-linecap="butt" stroke-linejoin="miter" stroke="rgb(0%, 0%, 0%)" stroke-opacity="1" stroke-miterlimit="10" d="M 218 443 L 218 439 "/>
<path fill="none" stroke-width="2" stroke-linecap="butt" stroke-linejoin="miter" stroke="rgb(0%, 0%, 0%)" stroke-opacity="1" stroke-miterlimit="10" d="M 268 443 L 268 439 "/>
<path fill="none" stroke-width="2" stroke-linecap="butt" stroke-linejoin="miter" stroke="rgb(0%, 0%, 0%)" stroke-opacity="1" stroke-miterlimit="10" d="M 293 443 L 293 439 "/>
<path fill="none" stroke-width="2" stroke-linecap="butt" stroke-linejoin="miter" stroke="rgb(0%, 0%, 0%)" stroke-opacity="1" stroke-miterlimit="10" d="M 318 443 L 318 439 "/>
<path fill="none" stroke-width="2" stroke-linecap="butt" stroke-linejoin="miter" stroke="rgb(0%, 0%, 0%)" stroke-opacity="1" stroke-miterlimit="10" d="M 343 443 L 343 439 "/>
<path fill="none" stroke-width="2" stroke-linecap="butt" stroke-linejoin="miter" stroke="rgb(0%, 0%, 0%)" stroke-opacity="1" stroke-miterlimit="10" d="M 394 443 L 394 439 "/>
<path fill="none" stroke-width="2" stroke-linecap="butt" stroke-linejoin="miter" stroke="rgb(0%, 0%, 0%)" stroke-opacity="1" stroke-miterlimit="10" d="M 419 443 L 419 439 "/>
<path fill="none" stroke-width="2" stroke-linecap="butt" stroke-linejoin="miter" stroke="rgb(0%, 0%, 0%)" stroke-opacity="1" stroke-miterlimit="10" d="M 444 443 L 444 439 "/>
<path fill="none" stroke-width="2" stroke-linecap="butt" stroke-linejoin="miter" stroke="rgb(0%, 0%, 0%)" stroke-opacity="1" stroke-miterlimit="10" d="M 469 443 L 469 439 "/>
<path fill="none" stroke-width="2" stroke-linecap="butt" stroke-linejoin="miter" stroke="rgb(0%, 0%, 0%)" stroke-opacity="1" stroke-miterlimit="10" d="M 519 443 L 519 439 "/>
<path fill="none" stroke-width="2" stroke-linecap="butt" stroke-linejoin="miter" stroke="rgb(0%, 0%, 0%)" stroke-opacity="1" stroke-miterlimit="10" d="M 544 443 L 544 439 "/>
<path fill="none" stroke-width="2" stroke-linecap="butt" stroke-linejoin="miter" stroke="rgb(0%, 0%, 0%)" stroke-opacity="1" stroke-miterlimit="10" d="M 570 443 L 570 439 "/>
<path fill="none" stroke-width="2" stroke-linecap="butt" stroke-linejoin="miter" stroke="rgb(0%, 0%, 0%)" stroke-opacity="1" stroke-miterlimit="10" d="M 595 443 L 595 439 "/>
<path fill="none" stroke-width="2" stroke-linecap="butt" stroke-linejoin="miter" stroke="rgb(0%, 0%, 0%)" stroke-opacity="1" stroke-miterlimit="10" d="M 645 443 L 645 439 "/>
<path fill="none" stroke-width="2" stroke-linecap="butt" stroke-linejoin="miter" stroke="rgb(0%, 0%, 0%)" stroke-opacity="1" stroke-miterlimit="10" d="M 92 442 L 92 29 "/>
<g fill="rgb(0%, 0%, 0%)" fill-opacity="1">
<use xlink:href="#glyph-1-0" x="24" y="243.300781"/>
</g>
<path fill="none" stroke-width="2" stroke-linecap="butt" stroke-linejoin="miter" stroke="rgb(0%, 0%, 0%)" stroke-opacity="1" stroke-miterlimit="10" d="M 92 424 L 100 424 "/>
<g fill="rgb(0%, 0%, 0%)" fill-opacity="1">
<use xlink:href="#glyph-0-1" x="72.726562" y="430.800781"/>
</g>
<path fill="none" stroke-width="2" stroke-linecap="butt" stroke-linejoin="miter" stroke="rgb(0%, 0%, 0%)" stroke-opacity="1" stroke-miterlimit="10" d="M 92 330 L 100 330 "/>
<g fill="rgb(0%, 0%, 0%)" fill-opacity="1">
<use xlink:href="#glyph-0-3" x="50.480469" y="336.828125"/>
<use xlink:href="#glyph-0-4" x="61.603516" y="336.828125"/>
<use xlink:href="#glyph-0-1" x="72.726562" y="336.828125"/>
</g>
<path fill="none" stroke-width="2" stroke-linecap="butt" stroke-linejoin="miter" stroke="rgb(0%, 0%, 0%)" stroke-opacity="1" stroke-miterlimit="10" d="M 92 236 L 100 236 "/>
<g fill="rgb(0%, 0%, 0%)" fill-opacity="1">
<use xlink:href="#glyph-0-4" x="50.480469" y="242.800781"/>
<use xlink:href="#glyph-0-1" x="61.603516" y="242.800781"/>
<use xlink:href="#glyph-0-1" x="72.726562" y="242.800781"/>
</g>
<path fill="none" stroke-width="2" stroke-linecap="butt" stroke-linejoin="miter" stroke="rgb(0%, 0%, 0%)" stroke-opacity="1" stroke-miterlimit="10" d="M 92 143 L 100 143 "/>
<g fill="rgb(0%, 0%, 0%)" fill-opacity="1">
<use xlink:href="#glyph-0-5" x="50.480469" y="149.800781"/>
<use xlink:href="#glyph-0-4" x="61.603516" y="149.800781"/>
<use xlink:href="#glyph-0-1" x="72.726562" y="149.800781"/>
</g>
<path fill="none" stroke-width="2" stroke-linecap="butt" stroke-linejoin="miter" stroke="rgb(0%, 0%, 0%)" stroke-opacity="1" stroke-miterlimit="10" d="M 92 49 L 100 49 "/>
<g fill="rgb(0%, 0%, 0%)" fill-opacity="1">
<use xlink:href="#glyph-0-6" x="39.359375" y="55.800781"/>
<use xlink:href="#glyph-0-1" x="50.482422" y="55.800781"/>
<use xlink:href="#glyph-0-1" x="61.605469" y="55.800781"/>
<use xlink:href="#glyph-0-1" x="72.728516" y="55.800781"/>
</g>
<path fill="none" stroke-width="2" stroke-linecap="butt" stroke-linejoin="miter" stroke="rgb(0%, 0%, 0%)" stroke-opacity="1" stroke-miterlimit="10" d="M 92 443 L 96 443 "/>
<path fill="none" stroke-width="2" stroke-linecap="butt" stroke-linejoin="miter" stroke="rgb(0%, 0%, 0%)" stroke-opacity="1" stroke-miterlimit="10" d="M 92 405 L 96 405 "/>
<path fill="none" stroke-width="2" stroke-linecap="butt" stroke-linejoin="miter" stroke="rgb(0%, 0%, 0%)" stroke-opacity="1" stroke-miterlimit="10" d="M 92 387 L 96 387 "/>
<path fill="none" stroke-width="2" stroke-linecap="butt" stroke-linejoin="miter" stroke="rgb(0%, 0%, 0%)" stroke-opacity="1" stroke-miterlimit="10" d="M 92 368 L 96 368 "/>
<path fill="none" stroke-width="2" stroke-linecap="butt" stroke-linejoin="miter" stroke="rgb(0%, 0%, 0%)" stroke-opacity="1" stroke-miterlimit="10" d="M 92 349 L 96 349 "/>
<path fill="none" stroke-width="2" stroke-linecap="butt" stroke-linejoin="miter" stroke="rgb(0%, 0%, 0%)" stroke-opacity="1" stroke-miterlimit="10" d="M 92 312 L 96 312 "/>
<path fill="none" stroke-width="2" stroke-linecap="butt" stroke-linejoin="miter" stroke="rgb(0%, 0%, 0%)" stroke-opacity="1" stroke-miterlimit="10" d="M 92 293 L 96 293 "/>
<path fill="none" stroke-width="2" stroke-linecap="butt" stroke-linejoin="miter" stroke="rgb(0%, 0%, 0%)" stroke-opacity="1" stroke-miterlimit="10" d="M 92 274 L 96 274 "/>
<path fill="none" stroke-width="2" stroke-linecap="butt" stroke-linejoin="miter" stroke="rgb(0%, 0%, 0%)" stroke-opacity="1" stroke-miterlimit="10" d="M 92 255 L 96 255 "/>
<path fill="none" stroke-width="2" stroke-linecap="butt" stroke-linejoin="miter" stroke="rgb(0%, 0%, 0%)" stroke-opacity="1" stroke-miterlimit="10" d="M 92 218 L 96 218 "/>
<path fill="none" stroke-width="2" stroke-linecap="butt" stroke-linejoin="miter" stroke="rgb(0%, 0%, 0%)" stroke-opacity="1" stroke-miterlimit="10" d="M 92 199 L 96 199 "/>
<path fill="none" stroke-width="2" stroke-linecap="butt" stroke-linejoin="miter" stroke="rgb(0%, 0%, 0%)" stroke-opacity="1" stroke-miterlimit="10" d="M 92 180 L 96 180 "/>
<path fill="none" stroke-width="2" stroke-linecap="butt" stroke-linejoin="miter" stroke="rgb(0%, 0%, 0%)" stroke-opacity="1" stroke-miterlimit="10" d="M 92 161 L 96 161 "/>
<path fill="none" stroke-width="2" stroke-linecap="butt" stroke-linejoin="miter" stroke="rgb(0%, 0%, 0%)" stroke-opacity="1" stroke-miterlimit="10" d="M 92 124 L 96 124 "/>
<path fill="none" stroke-width="2" stroke-linecap="butt" stroke-linejoin="miter" stroke="rgb(0%, 0%, 0%)" stroke-opacity="1" stroke-miterlimit="10" d="M 92 105 L 96 105 "/>
<path fill="none" stroke-width="2" stroke-linecap="butt" stroke-linejoin="miter" stroke="rgb(0%, 0%, 0%)" stroke-opacity="1" stroke-miterlimit="10" d="M 92 86 L 96 86 "/>
<path fill="none" stroke-width="2" stroke-linecap="butt" stroke-linejoin="miter" stroke="rgb(0%, 0%, 0%)" stroke-opacity="1" stroke-miterlimit="10" d="M 92 68 L 96 68 "/>
<path fill="none" stroke-width="2" stroke-linecap="butt" stroke-linejoin="miter" stroke="rgb(0%, 0%, 0%)" stroke-opacity="1" stroke-miterlimit="10" d="M 92 30 L 96 30 "/>
<path fill="none" stroke-width="2" stroke-linecap="butt" stroke-linejoin="miter" stroke="rgb(0%, 0%, 0%)" stroke-opacity="1" stroke-miterlimit="10" d="M 93 30 L 646 30 "/>
<path fill="none" stroke-width="2" stroke-linecap="butt" stroke-linejoin="miter" stroke="rgb(0%, 0%, 0%)" stroke-opacity="1" stroke-miterlimit="10" d="M 117 38 L 117 30 "/>
<path fill="none" stroke-width="2" stroke-linecap="butt" stroke-linejoin="miter" stroke="rgb(0%, 0%, 0%)" stroke-opacity="1" stroke-miterlimit="10" d="M 243 38 L 243 30 "/>
<path fill="none" stroke-width="2" stroke-linecap="butt" stroke-linejoin="miter" stroke="rgb(0%, 0%, 0%)" stroke-opacity="1" stroke-miterlimit="10" d="M 369 38 L 369 30 "/>
<path fill="none" stroke-width="2" stroke-linecap="butt" stroke-linejoin="miter" stroke="rgb(0%, 0%, 0%)" stroke-opacity="1" stroke-miterlimit="10" d="M 494 38 L 494 30 "/>
<path fill="none" stroke-width="2" stroke-linecap="butt" stroke-linejoin="miter" stroke="rgb(0%, 0%, 0%)" stroke-opacity="1" stroke-miterlimit="10" d="M 620 38 L 620 30 "/>
<path fill="none" stroke-width="2" stroke-linecap="butt" stroke-linejoin="miter" stroke="rgb(0%, 0%, 0%)" stroke-opacity="1" stroke-miterlimit="10" d="M 92 34 L 92 30 "/>
<path fill="none" stroke-width="2" stroke-linecap="butt" stroke-linejoin="miter" stroke="rgb(0%, 0%, 0%)" stroke-opacity="1" stroke-miterlimit="10" d="M 142 34 L 142 30 "/>
<path fill="none" stroke-width="2" stroke-linecap="butt" stroke-linejoin="miter" stroke="rgb(0%, 0%, 0%)" stroke-opacity="1" stroke-miterlimit="10" d="M 167 34 L 167 30 "/>
<path fill="none" stroke-width="2" stroke-linecap="butt" stroke-linejoin="miter" stroke="rgb(0%, 0%, 0%)" stroke-opacity="1" stroke-miterlimit="10" d="M 193 34 L 193 30 "/>
<path fill="none" stroke-width="2" stroke-linecap="butt" stroke-linejoin="miter" stroke="rgb(0%, 0%, 0%)" stroke-opacity="1" stroke-miterlimit="10" d="M 218 34 L 218 30 "/>
<path fill="none" stroke-width="2" stroke-linecap="butt" stroke-linejoin="miter" stroke="rgb(0%, 0%, 0%)" stroke-opacity="1" stroke-miterlimit="10" d="M 268 34 L 268 30 "/>
<path fill="none" stroke-width="2" stroke-linecap="butt" stroke-linejoin="miter" stroke="rgb(0%, 0%, 0%)" stroke-opacity="1" stroke-miterlimit="10" d="M 293 34 L 293 30 "/>
<path fill="none" stroke-width="2" stroke-linecap="butt" stroke-linejoin="miter" stroke="rgb(0%, 0%, 0%)" stroke-opacity="1" stroke-miterlimit="10" d="M 318 34 L 318 30 "/>
<path fill="none" stroke-width="2" stroke-linecap="butt" stroke-linejoin="miter" stroke="rgb(0%, 0%, 0%)" stroke-opacity="1" stroke-miterlimit="10" d="M 343 34 L 343 30 "/>
<path fill="none" stroke-width="2" stroke-linecap="butt" stroke-linejoin="miter" stroke="rgb(0%, 0%, 0%)" stroke-opacity="1" stroke-miterlimit="10" d="M 394 34 L 394 30 "/>
<path fill="none" stroke-width="2" stroke-linecap="butt" stroke-linejoin="miter" stroke="rgb(0%, 0%, 0%)" stroke-opacity="1" stroke-miterlimit="10" d="M 419 34 L 419 30 "/>
<path fill="none" stroke-width="2" stroke-linecap="butt" stroke-linejoin="miter" stroke="rgb(0%, 0%, 0%)" stroke-opacity="1" stroke-miterlimit="10" d="M 444 34 L 444 30 "/>
<path fill="none" stroke-width="2" stroke-linecap="butt" stroke-linejoin="miter" stroke="rgb(0%, 0%, 0%)" stroke-opacity="1" stroke-miterlimit="10" d="M 469 34 L 469 30 "/>
<path fill="none" stroke-width="2" stroke-linecap="butt" stroke-linejoin="miter" stroke="rgb(0%, 0%, 0%)" stroke-opacity="1" stroke-miterlimit="10" d="M 519 34 L 519 30 "/>
<path fill="none" stroke-width="2" stroke-linecap="butt" stroke-linejoin="miter" stroke="rgb(0%, 0%, 0%)" stroke-opacity="1" stroke-miterlimit="10" d="M 544 34 L 544 30 "/>
<path fill="none" stroke-width="2" stroke-linecap="butt" stroke-linejoin="miter" stroke="rgb(0%, 0%, 0%)" stroke-opacity="1" stroke-miterlimit="10" d="M 570 34 L 570 30 "/>
<path fill="none" stroke-width="2" stroke-linecap="butt" stroke-linejoin="miter" stroke="rgb(0%, 0%, 0%)" stroke-opacity="1" stroke-miterlimit="10" d="M 595 34 L 595 30 "/>
<path fill="none" stroke-width="2" stroke-linecap="butt" stroke-linejoin="miter" stroke="rgb(0%, 0%, 0%)" stroke-opacity="1" stroke-miterlimit="10" d="M 645 34 L 645 30 "/>
<path fill="none" stroke-width="2" stroke-linecap="butt" stroke-linejoin="miter" stroke="rgb(0%, 0%, 0%)" stroke-opacity="1" stroke-miterlimit="10" d="M 645 442 L 645 31 "/>
<path fill="none" stroke-width="2" stroke-linecap="butt" stroke-linejoin="miter" stroke="rgb(0%, 0%, 0%)" stroke-opacity="1" stroke-miterlimit="10" d="M 637 424 L 645 424 "/>
<path fill="none" stroke-width="2" stroke-linecap="butt" stroke-linejoin="miter" stroke="rgb(0%, 0%, 0%)" stroke-opacity="1" stroke-miterlimit="10" d="M 637 330 L 645 330 "/>
<path fill="none" stroke-width="2" stroke-linecap="butt" stroke-linejoin="miter" stroke="rgb(0%, 0%, 0%)" stroke-opacity="1" stroke-miterlimit="10" d="M 637 236 L 645 236 "/>
<path fill="none" stroke-width="2" stroke-linecap="butt" stroke-linejoin="miter" stroke="rgb(0%, 0%, 0%)" stroke-opacity="1" stroke-miterlimit="10" d="M 637 143 L 645 143 "/>
<path fill="none" stroke-width="2" stroke-linecap="butt" stroke-linejoin="miter" stroke="rgb(0%, 0%, 0%)" stroke-opacity="1" stroke-miterlimit="10" d="M 637 49 L 645 49 "/>
<path fill="none" stroke-width="2" stroke-linecap="butt" stroke-linejoin="miter" stroke="rgb(0%, 0%, 0%)" stroke-opacity="1" stroke-miterlimit="10" d="M 641 443 L 645 443 "/>
<path fill="none" stroke-width="2" stroke-linecap="butt" stroke-linejoin="miter" stroke="rgb(0%, 0%, 0%)" stroke-opacity="1" stroke-miterlimit="10" d="M 641 405 L 645 405 "/>
<path fill="none" stroke-width="2" stroke-linecap="butt" stroke-linejoin="miter" stroke="rgb(0%, 0%, 0%)" stroke-opacity="1" stroke-miterlimit="10" d="M 641 387 L 645 387 "/>
<path fill="none" stroke-width="2" stroke-linecap="butt" stroke-linejoin="miter" stroke="rgb(0%, 0%, 0%)" stroke-opacity="1" stroke-miterlimit="10" d="M 641 368 L 645 368 "/>
<path fill="none" stroke-width="2" stroke-linecap="butt" stroke-linejoin="miter" stroke="rgb(0%, 0%, 0%)" stroke-opacity="1" stroke-miterlimit="10" d="M 641 349 L 645 349 "/>
<path fill="none" stroke-width="2" stroke-linecap="butt" stroke-linejoin="miter" stroke="rgb(0%, 0%, 0%)" stroke-opacity="1" stroke-miterlimit="10" d="M 641 312 L 645 312 "/>
<path fill="none" stroke-width="2" stroke-linecap="butt" stroke-linejoin="miter" stroke="rgb(0%, 0%, 0%)" stroke-opacity="1" stroke-miterlimit="10" d="M 641 293 L 645 293 "/>
<path fill="none" stroke-width="2" stroke-linecap="butt" stroke-linejoin="miter" stroke="rgb(0%, 0%, 0%)" stroke-opacity="1" stroke-miterlimit="10" d="M 641 274 L 645 274 "/>
<path fill="none" stroke-width="2" stroke-linecap="butt" stroke-linejoin="miter" stroke="rgb(0%, 0%, 0%)" stroke-opacity="1" stroke-miterlimit="10" d="M 641 255 L 645 255 "/>
<path fill="none" stroke-width="2" stroke-linecap="butt" stroke-linejoin="miter" stroke="rgb(0%, 0%, 0%)" stroke-opacity="1" stroke-miterlimit="10" d="M 641 218 L 645 218 "/>
<path fill="none" stroke-width="2" stroke-linecap="butt" stroke-linejoin="miter" stroke="rgb(0%, 0%, 0%)" stroke-opacity="1" stroke-miterlimit="10" d="M 641 199 L 645 199 "/>
<path fill="none" stroke-width="2" stroke-linecap="butt" stroke-linejoin="miter" stroke="rgb(0%, 0%, 0%)" stroke-opacity="1" stroke-miterlimit="10" d="M 641 180 L 645 180 "/>
<path fill="none" stroke-width="2" stroke-linecap="butt" stroke-linejoin="miter" stroke="rgb(0%, 0%, 0%)" stroke-opacity="1" stroke-miterlimit="10" d="M 641 161 L 645 161 "/>
<path fill="none" stroke-width="2" stroke-linecap="butt" stroke-linejoin="miter" stroke="rgb(0%, 0%, 0%)" stroke-opacity="1" stroke-miterlimit="10" d="M 641 124 L 645 124 "/>
<path fill="none" stroke-width="2" stroke-linecap="butt" stroke-linejoin="miter" stroke="rgb(0%, 0%, 0%)" stroke-opacity="1" stroke-miterlimit="10" d="M 641 105 L 645 105 "/>
<path fill="none" stroke-width="2" stroke-linecap="butt" stroke-linejoin="miter" stroke="rgb(0%, 0%, 0%)" stroke-opacity="1" stroke-miterlimit="10" d="M 641 86 L 645 86 "/>
<path fill="none" stroke-width="2" stroke-linecap="butt" stroke-linejoin="miter" stroke="rgb(0%, 0%, 0%)" stroke-opacity="1" stroke-miterlimit="10" d="M 641 68 L 645 68 "/>
<path fill="none" stroke-width="2" stroke-linecap="butt" stroke-linejoin="miter" stroke="rgb(0%, 0%, 0%)" stroke-opacity="1" stroke-miterlimit="10" d="M 641 30 L 645 30 "/>
</svg>
